<?xml version="1.0" standalone="no"?>
<!DOCTYPE svg PUBLIC "-//W3C//DTD SVG 20010904//EN"
 "http://www.w3.org/TR/2001/REC-SVG-20010904/DTD/svg10.dtd">
<svg version="1.0" xmlns="http://www.w3.org/2000/svg"
 width="500.000000pt" height="500.000000pt" viewBox="0 0 500.000000 500.000000"
 preserveAspectRatio="xMidYMid meet">
<metadata>
Created by potrace 1.14, written by Peter Selinger 2001-2017
</metadata>
<g transform="translate(0.000000,500.000000) scale(0.100000,-0.100000)"
fill="#000000" stroke="none">
<path d="M2358 4484 c-2 -1 -31 -5 -66 -8 -53 -5 -152 -23 -227 -40 -133 -30
-304 -95 -440 -166 -49 -26 -107 -53 -128 -60 -39 -12 -180 -108 -209 -141
-10 -11 -40 -33 -68 -48 -30 -16 -61 -43 -73 -63 -38 -61 -106 -131 -130 -133
-29 -3 -59 13 -51 26 4 7 -1 7 -15 0 -12 -7 -21 -8 -21 -2 0 5 -9 7 -20 4 -12
-3 -20 0 -20 7 0 8 -8 10 -21 7 -16 -4 -19 -2 -14 11 5 14 4 15 -6 5 -15 -15
-43 -18 -35 -4 4 5 -2 8 -11 6 -10 -1 -26 2 -35 7 -12 6 -18 5 -18 -3 0 -8 -4
-8 -12 -2 -7 6 -23 9 -36 8 -12 -1 -22 2 -22 7 0 5 -10 2 -23 -7 -13 -8 -26
-12 -30 -9 -10 10 -26 -40 -23 -70 2 -14 -1 -26 -5 -26 -5 0 -8 -25 -6 -55 2
-35 0 -55 -7 -55 -7 0 -7 -3 1 -8 8 -5 9 -13 3 -22 -5 -8 -5 -21 1 -31 6 -12
5 -19 -4 -22 -7 -3 -4 -6 6 -6 14 -1 16 -5 8 -20 -6 -10 -8 -21 -4 -24 5 -6 8
-34 14 -149 1 -27 5 -48 9 -48 4 0 7 -7 7 -15 0 -8 -3 -13 -5 -10 -3 3 -11 0
-19 -6 -10 -9 -13 -8 -13 2 0 10 -2 11 -8 2 -7 -12 -66 -29 -126 -39 -17 -2
-33 -10 -38 -17 -6 -9 -8 -8 -8 3 -1 12 -3 12 -14 -2 -10 -14 -15 -15 -26 -5
-10 10 -11 9 -5 -2 6 -11 4 -13 -8 -8 -10 4 -17 1 -17 -5 0 -6 -3 -8 -7 -5 -3
4 -12 2 -20 -4 -10 -9 -13 -8 -13 2 -1 10 -4 9 -11 -3 -5 -9 -16 -15 -23 -12
-8 3 -17 0 -21 -5 -3 -6 -11 -9 -16 -6 -5 4 -9 1 -9 -5 0 -6 -4 -9 -9 -5 -5 3
-13 0 -16 -6 -4 -5 -13 -8 -20 -5 -7 2 -23 -5 -35 -16 -12 -11 -24 -18 -26
-15 -3 3 -18 -7 -33 -22 -20 -18 -26 -31 -20 -42 5 -9 6 -19 3 -22 -6 -6 46
-100 58 -105 4 -2 8 -13 8 -23 0 -11 5 -17 10 -14 6 3 10 -1 10 -9 0 -9 5 -16
10 -16 6 0 10 -6 10 -14 0 -7 10 -21 23 -30 12 -9 16 -14 9 -10 -11 5 -11 2
-1 -14 7 -12 17 -18 22 -15 5 3 6 -5 2 -18 -4 -15 -3 -19 2 -12 7 9 16 5 35
-17 24 -28 25 -35 5 -31 -5 1 -6 -3 -2 -8 3 -6 12 -8 19 -5 8 3 17 0 22 -7 4
-7 3 -10 -3 -6 -5 3 -10 0 -10 -8 0 -11 5 -12 20 -3 12 6 17 6 13 0 -3 -5 5
-21 19 -33 28 -27 35 -75 9 -65 -9 4 -13 2 -8 -5 4 -7 -4 -21 -17 -31 -13 -11
-18 -17 -12 -13 8 4 11 1 7 -9 -3 -8 -12 -12 -20 -9 -8 3 -14 -1 -14 -8 0 -8
-14 -30 -30 -49 -16 -19 -30 -39 -30 -43 0 -5 -5 -5 -12 -1 -7 5 -9 2 -6 -8 4
-8 -2 -20 -14 -27 -11 -7 -18 -15 -15 -18 3 -3 -5 -15 -19 -28 -13 -12 -24
-25 -24 -28 0 -3 -16 -29 -35 -58 -19 -29 -32 -56 -29 -61 3 -4 0 -8 -5 -8
-19 0 -12 -49 9 -70 11 -11 20 -17 20 -14 0 3 7 -2 16 -11 9 -9 23 -14 31 -11
8 3 11 2 8 -3 -3 -5 -1 -12 5 -16 5 -3 10 -1 10 5 0 6 5 8 10 5 6 -4 8 -11 5
-16 -4 -5 5 -9 19 -9 40 0 40 0 62 -21 15 -14 24 -17 29 -9 5 8 10 8 20 0 8
-7 20 -8 26 -4 7 4 9 3 5 -4 -3 -6 -2 -13 3 -16 5 -4 12 -2 16 4 4 6 14 4 29
-5 12 -8 26 -12 31 -8 4 5 4 2 0 -6 -6 -11 -4 -13 8 -8 9 3 19 2 22 -3 3 -5
12 -7 20 -3 8 3 15 0 15 -6 0 -6 -5 -10 -12 -9 -7 2 -12 -2 -13 -9 0 -6 -4
-15 -9 -20 -5 -4 -6 -3 -2 4 4 7 -8 22 -31 37 -36 25 -64 26 -30 2 9 -7 17
-17 17 -21 0 -5 -9 0 -20 10 -11 10 -20 13 -20 7 0 -6 4 -14 10 -17 5 -3 10
-11 10 -18 0 -6 -7 -2 -16 9 -12 15 -15 15 -10 2 6 -19 -20 -33 -30 -16 -4 7
-3 8 4 4 7 -4 12 -1 12 8 0 9 -8 14 -20 13 -11 -1 -18 -7 -16 -13 6 -16 -17
-12 -40 6 -16 14 -17 13 -11 -3 4 -10 3 -16 -2 -12 -5 3 -12 -1 -15 -7 -5 -11
-7 -11 -12 0 -3 6 -10 10 -15 6 -5 -3 -5 -14 2 -27 9 -20 9 -21 -4 -4 -11 14
-16 15 -21 5 -3 -7 -3 0 -1 16 4 27 15 49 15 30 0 -5 9 -10 21 -11 12 -1 19 3
16 10 -2 7 -12 10 -22 9 -17 -3 -17 -2 -5 13 11 14 16 14 25 3 5 -7 17 -14 25
-16 8 -2 19 -9 23 -15 6 -8 7 -5 3 6 -4 12 -2 16 6 11 7 -5 8 -3 3 6 -6 9 -4
11 5 5 9 -6 11 -4 5 5 -5 8 -4 11 2 7 5 -3 10 0 10 8 0 8 -5 11 -10 8 -6 -4
-7 -1 -2 7 5 9 4 11 -4 6 -6 -4 -9 -11 -6 -16 3 -5 0 -12 -6 -16 -9 -5 -10 -1
-7 14 5 19 4 20 -14 11 -17 -9 -20 -9 -15 3 5 15 -18 18 -40 5 -6 -4 -14 -1
-16 5 -4 9 -6 10 -6 1 -1 -16 16 -26 24 -13 8 12 35 -5 35 -22 0 -6 -5 -6 -14
1 -10 9 -16 8 -26 -4 -7 -8 -17 -12 -23 -8 -6 3 -7 1 -3 -5 4 -7 2 -12 -4 -12
-6 0 -8 -5 -5 -10 3 -6 1 -10 -5 -10 -6 0 -9 -4 -5 -9 3 -5 0 -13 -6 -17 -7
-4 -9 -3 -6 3 4 6 0 18 -7 28 -10 14 -15 15 -21 5 -5 -8 -4 -11 2 -7 6 4 13 1
16 -6 5 -14 -27 -79 -37 -72 -3 3 -4 2 -1 -2 3 -3 -3 -15 -12 -26 -10 -11 -12
-17 -6 -13 8 4 13 2 13 -5 0 -16 11 -5 14 13 3 21 16 38 29 38 7 0 6 -4 -3
-10 -8 -5 -11 -10 -6 -10 5 0 3 -7 -4 -15 -11 -13 -9 -20 11 -42 13 -14 18
-23 12 -19 -7 4 -13 2 -13 -3 0 -6 -4 -11 -9 -11 -6 0 -8 9 -6 20 5 25 0 25
-26 2 -19 -19 -19 -19 1 -37 11 -10 17 -22 14 -27 -3 -5 -12 -1 -21 9 -13 17
-13 16 -3 -4 8 -17 8 -23 0 -23 -6 0 -8 -5 -4 -11 5 -8 10 -6 16 5 5 9 13 14
18 11 5 -3 18 -1 29 5 15 7 22 7 27 -2 4 -7 4 -10 -1 -6 -4 4 -17 2 -29 -4
-11 -7 -24 -11 -28 -10 -4 1 -5 -5 -1 -14 5 -13 7 -13 23 1 14 13 17 13 17 0
0 -8 -4 -12 -9 -9 -4 3 -11 -1 -14 -10 -3 -9 -13 -12 -22 -9 -13 4 -12 2 3
-11 11 -10 15 -15 8 -12 -6 4 -14 2 -17 -2 -3 -5 5 -9 17 -8 16 1 21 7 19 21
-5 27 8 13 13 -14 2 -12 0 -19 -6 -16 -5 4 -9 -3 -9 -15 0 -14 4 -19 13 -14 6
4 9 4 5 -1 -4 -4 -3 -14 4 -22 6 -7 8 -16 4 -20 -3 -3 -6 -1 -6 5 0 6 -9 9
-20 7 -11 -2 -18 0 -15 6 4 5 1 9 -5 9 -7 0 -9 -7 -6 -16 3 -9 6 -18 6 -20 0
-3 4 -3 9 1 18 10 22 -15 7 -37 -15 -20 -14 -23 10 -39 22 -14 23 -17 9 -23
-14 -5 -15 -9 -5 -21 7 -8 16 -13 20 -10 5 3 11 1 14 -3 3 -5 -10 -8 -28 -7
-34 1 -67 -27 -46 -40 6 -3 10 -11 10 -16 0 -6 -5 -7 -12 -3 -7 4 -8 3 -4 -5
4 -6 12 -9 17 -6 5 4 9 1 9 -4 0 -10 -14 -15 -33 -12 -5 1 -6 -3 -2 -8 3 -6
13 -8 23 -5 15 5 15 4 -1 -9 -18 -15 -17 -15 10 -13 15 1 35 6 43 11 13 8 13
6 1 -8 -7 -9 -17 -14 -22 -11 -5 3 -9 0 -9 -6 0 -6 -4 -9 -9 -6 -5 4 -8 -2 -6
-11 4 -25 -6 -38 -16 -22 -6 10 -9 10 -9 2 0 -6 9 -18 20 -26 11 -8 17 -17 12
-22 -4 -5 -1 -5 6 -1 6 4 12 3 12 -3 0 -5 -6 -12 -12 -15 -7 -3 -4 -4 7 -3 14
2 19 9 17 22 -2 16 -1 17 7 5 5 -8 6 -19 2 -25 -10 -13 -8 -56 3 -75 7 -12 6
-13 -5 -2 -15 14 -29 16 -29 3 0 -5 9 -13 21 -16 15 -5 17 -10 9 -20 -8 -10
-7 -14 2 -18 8 -3 8 -6 2 -6 -6 -1 -18 7 -25 16 -10 11 -10 14 -1 9 6 -4 12
-3 12 2 0 11 -30 25 -38 17 -3 -3 0 -5 7 -5 7 0 9 -5 6 -10 -4 -6 -12 -7 -18
-3 -8 5 -8 2 0 -9 7 -8 9 -19 5 -24 -4 -4 2 -2 12 6 18 14 19 13 13 -3 -4 -10
-7 -21 -7 -23 0 -3 -5 -2 -11 2 -6 3 -4 -7 5 -23 14 -27 13 -32 -1 -53 -11
-16 -12 -21 -3 -15 10 6 12 4 6 -11 -14 -32 -15 -64 -3 -61 7 1 11 -7 9 -18
-2 -16 -1 -17 7 -5 5 8 7 18 4 24 -4 5 -1 6 7 1 9 -5 11 -4 6 3 -4 7 -2 12 3
12 14 0 14 -17 0 -25 -5 -4 -8 -12 -6 -18 2 -7 -8 -18 -22 -24 -18 -9 -20 -11
-5 -8 12 3 27 -1 34 -10 7 -8 9 -15 4 -15 -4 0 1 -7 12 -15 18 -14 17 -14 -9
-3 -20 8 -24 14 -15 20 10 6 9 8 -4 8 -12 0 -16 -8 -14 -34 1 -19 5 -38 9 -42
11 -11 8 -66 -3 -59 -5 3 -10 1 -10 -4 0 -6 5 -11 10 -11 15 0 8 -33 -10 -48
-13 -10 -13 -11 3 -6 13 5 16 2 11 -12 -3 -11 -2 -15 3 -9 14 17 50 17 56 1 4
-9 13 -13 22 -10 8 3 15 2 15 -3 0 -5 -11 -9 -24 -9 -14 0 -22 4 -19 10 4 5 1
6 -7 1 -9 -5 -11 -4 -6 3 5 8 1 10 -10 5 -16 -6 -16 -7 1 -19 10 -7 21 -11 25
-9 5 3 11 -3 15 -12 6 -16 8 -15 24 6 13 17 20 20 26 11 4 -7 2 -16 -5 -20 -8
-5 -7 -9 5 -13 9 -4 13 -3 10 2 -3 5 -1 13 5 16 8 5 7 11 -1 21 -10 12 -9 17
0 27 10 9 11 8 5 -7 -6 -15 -4 -17 6 -11 9 5 11 4 6 -3 -4 -7 -2 -12 5 -12 9
0 9 -3 0 -14 -9 -11 -9 -16 0 -22 7 -4 9 -3 5 4 -3 6 -2 13 3 17 6 3 8 13 5
23 -5 15 -5 15 6 -1 6 -9 8 -23 4 -30 -5 -8 -3 -8 9 2 12 10 14 18 7 32 -8 15
-7 17 4 13 9 -4 13 -16 11 -35 -3 -24 -2 -27 9 -16 8 6 11 18 8 26 -3 9 -1 12
6 7 7 -4 12 -1 12 8 0 8 4 17 9 20 5 4 7 -4 4 -16 -3 -13 -1 -19 4 -13 12 14
36 18 27 4 -4 -7 -2 -10 7 -7 8 3 13 11 12 17 -4 17 4 13 26 -11 11 -11 17
-26 14 -32 -3 -6 -3 -8 2 -4 4 4 14 0 22 -10 9 -11 9 -6 -2 17 -9 18 -12 30
-7 27 6 -3 12 -1 14 5 2 6 14 5 33 -5 34 -18 44 -14 24 11 -9 11 -10 14 -1 9
7 -4 12 -2 12 5 0 7 3 9 7 6 3 -4 13 -1 21 6 13 9 14 9 8 0 -4 -8 -1 -13 9
-13 9 0 13 -5 10 -10 -5 -7 -11 -8 -19 -1 -6 5 -17 6 -24 2 -10 -6 -9 -11 3
-21 13 -11 14 -10 8 6 -6 17 -5 17 10 5 9 -7 17 -10 17 -5 0 5 5 2 11 -6 9
-13 10 -12 5 3 -3 10 0 17 7 17 7 0 4 5 -6 11 -9 5 -17 15 -17 20 0 6 4 8 9 5
4 -3 17 1 27 9 10 8 14 15 8 15 -5 0 -14 -4 -20 -10 -6 -6 -14 -2 -23 13 -13
20 -13 21 2 9 14 -12 16 -11 14 7 -1 15 -6 20 -17 16 -11 -5 -12 -3 -3 6 12
12 37 3 28 -11 -3 -5 0 -12 7 -16 7 -4 10 -4 6 1 -4 4 -3 14 3 21 8 10 6 22
-9 47 -14 25 -16 34 -6 34 7 0 11 -4 9 -8 -3 -4 4 -18 15 -30 12 -15 19 -18
18 -9 -2 8 2 14 9 13 7 -2 10 6 8 17 -2 11 4 27 13 37 16 16 16 16 0 10 -16
-6 -20 -1 -17 19 0 4 -5 10 -11 14 -9 5 -9 9 -1 14 6 4 11 2 11 -3 0 -12 33
-15 43 -5 3 4 2 15 -3 24 -7 12 -6 21 4 29 7 6 15 9 18 6 2 -3 5 2 5 10 0 8
-4 12 -9 9 -20 -12 1 40 23 58 23 18 23 19 1 8 -12 -6 -21 -7 -20 -3 1 4 -4
18 -11 31 -12 22 -11 23 7 13 15 -8 23 -7 32 4 11 13 10 14 -3 10 -8 -4 -18
-2 -22 4 -3 6 -1 11 5 11 6 0 8 4 5 10 -3 5 -1 10 5 10 6 0 8 4 5 10 -4 6 1 7
12 3 16 -6 16 -4 -2 17 -11 13 -14 20 -7 16 7 -4 19 -2 27 4 11 9 15 9 15 1 0
-6 -4 -11 -10 -11 -5 0 -10 -5 -10 -11 0 -5 4 -7 10 -4 6 3 7 -1 4 -9 -3 -9
-12 -16 -19 -16 -7 0 -16 -7 -19 -16 -6 -15 -4 -15 11 -3 9 8 14 9 10 2 -4 -7
0 -16 10 -22 14 -8 15 -10 3 -11 -13 0 -13 -2 0 -9 9 -7 3 -9 -23 -7 -20 2
-34 -1 -31 -6 3 -5 13 -7 21 -6 23 4 25 -30 2 -37 -10 -4 -19 -11 -19 -17 0
-6 3 -8 6 -5 4 3 15 2 25 -4 15 -7 19 -6 19 5 0 10 -6 13 -17 10 -15 -5 -16
-4 -3 5 23 17 32 13 28 -13 -1 -13 4 -32 12 -42 14 -18 14 -18 -8 0 -20 17
-33 10 -15 -8 5 -4 8 -17 8 -29 1 -12 4 -28 8 -34 5 -7 4 -13 -2 -13 -5 0 -13
9 -16 21 -6 19 -8 19 -24 5 -10 -9 -21 -13 -26 -9 -4 5 -5 2 0 -5 5 -10 10
-11 18 -3 23 23 27 10 7 -19 -22 -31 -19 -40 5 -16 8 7 11 17 7 22 -4 5 1 2
10 -5 9 -7 23 -10 30 -6 7 4 6 1 -3 -7 -9 -7 -17 -17 -18 -23 -5 -20 -10 -17
-6 4 2 13 0 19 -6 15 -6 -3 -8 -9 -4 -12 3 -3 -9 -14 -27 -23 -27 -15 -29 -17
-11 -16 13 1 23 5 23 9 0 4 4 8 10 8 13 0 9 -20 -7 -38 -16 -16 -7 -39 18 -45
20 -5 27 -27 8 -27 -5 0 -8 4 -5 8 3 5 -1 9 -9 9 -8 0 -15 -4 -15 -9 0 -5 -5
-6 -12 -2 -7 4 -8 3 -4 -5 4 -6 12 -9 17 -6 5 4 14 3 20 -1 8 -4 7 -9 -2 -15
-11 -7 -10 -9 5 -9 12 0 16 -5 12 -16 -3 -8 -2 -13 3 -10 8 5 23 -16 25 -36 1
-3 5 -10 10 -15 5 -5 6 -3 2 5 -9 15 -1 15 27 1 20 -9 20 -9 5 4 -10 8 -15 17
-11 21 4 4 0 4 -9 1 -23 -9 -56 52 -37 69 9 8 10 8 5 -1 -3 -6 -3 -19 0 -28 6
-13 9 -14 16 -3 6 9 7 6 3 -9 -8 -27 3 -30 21 -5 10 12 13 13 9 2 -4 -11 1
-16 16 -17 17 -2 18 1 8 13 -10 12 -9 13 4 8 19 -7 30 -32 20 -47 -4 -7 1 -6
10 2 9 7 15 17 12 21 -2 4 3 16 11 26 9 10 13 13 9 6 -4 -7 -8 -26 -10 -42 -3
-24 -2 -28 9 -18 7 7 11 22 9 33 -4 16 -3 17 6 5 10 -13 11 -13 11 0 0 13 1
13 10 0 9 -13 14 -7 11 12 0 4 6 5 14 2 8 -4 13 -10 10 -14 -3 -5 4 -8 15 -7
11 1 20 7 20 14 0 6 4 15 10 18 6 3 7 -1 4 -10 -4 -8 -1 -21 5 -29 6 -7 9 -16
6 -19 -3 -4 -2 -5 2 -2 3 3 13 -3 20 -13 8 -9 6 -1 -5 19 -15 28 -17 36 -6 35
7 -1 17 -5 20 -9 14 -14 26 -7 14 8 -11 13 -10 14 4 9 9 -3 16 -10 16 -16 0
-5 4 -6 10 -3 6 4 7 -1 3 -12 -6 -16 -5 -16 9 -5 12 10 22 11 36 3 15 -8 23
-7 32 4 10 12 16 13 28 3 10 -9 13 -9 9 -1 -4 6 -1 13 5 16 7 3 2 5 -12 4 -14
-1 -28 -5 -31 -10 -4 -5 -6 4 -6 19 0 16 2 23 4 17 6 -18 33 -16 33 2 0 9 6
12 18 8 11 -3 9 0 -6 11 -12 10 -20 21 -17 26 3 4 -1 11 -7 14 -9 4 -8 5 2 5
40 -3 43 0 24 29 -17 26 -17 27 1 12 17 -14 18 -13 12 3 -6 15 -4 16 13 7 13
-7 21 -7 25 0 4 6 11 7 17 4 6 -4 8 -2 4 4 -3 6 -14 9 -24 7 -12 -2 -17 4 -18
21 -1 15 4 24 12 24 8 0 14 -5 14 -11 0 -5 -5 -7 -12 -3 -7 5 -8 3 -4 -5 5 -7
11 -10 14 -7 3 3 15 -2 26 -11 l21 -18 -20 23 c-19 23 -19 24 0 38 14 10 15
14 4 15 -8 0 -6 3 5 8 19 7 19 8 -2 13 -14 4 -20 2 -15 -4 3 -7 1 -8 -6 -4 -7
4 -10 2 -9 -5 2 -6 -8 -13 -21 -14 -19 -1 -21 0 -9 9 8 6 13 16 11 23 -2 6 1
14 6 18 7 4 8 0 4 -11 -6 -16 -5 -16 16 -2 37 26 55 58 42 71 -9 9 -11 7 -6
-8 l7 -20 -13 20 c-24 37 -18 46 14 23 18 -11 26 -15 20 -8 -7 8 -13 23 -13
35 0 16 -2 17 -10 5 -7 -12 -9 -10 -7 7 0 12 5 19 9 17 4 -3 8 1 8 8 0 10 3 9
9 -2 6 -8 7 -18 5 -22 -3 -4 0 -16 6 -25 11 -17 11 -17 6 0 -7 21 11 60 23 53
4 -3 8 1 8 9 0 13 -4 12 -19 -2 -10 -9 -18 -11 -18 -5 0 6 5 14 10 17 6 3 10
19 10 36 0 16 4 29 9 29 4 0 7 -11 6 -24 -2 -19 1 -23 13 -18 10 4 12 7 4 10
-7 2 -9 8 -6 13 4 6 10 7 17 0 19 -15 213 -111 225 -111 6 0 21 -10 33 -22 12
-13 18 -17 14 -9 -6 11 -4 13 9 8 10 -4 20 -7 22 -7 2 0 -1 -9 -8 -19 -7 -11
-16 -17 -22 -14 -5 3 -6 1 -2 -6 4 -6 11 -9 15 -7 8 5 51 -46 51 -60 0 -3 -8
0 -17 7 -16 13 -17 12 -5 -3 10 -13 10 -17 0 -21 -11 -4 -10 -6 0 -6 7 -1 10
-6 7 -12 -4 -6 2 -5 14 3 12 7 17 14 12 16 -6 2 -8 9 -5 16 3 8 -2 21 -11 29
-8 9 -14 22 -13 29 2 7 -3 12 -9 11 -7 -2 -13 1 -13 6 0 14 25 20 41 10 11 -7
11 -9 1 -9 -7 0 -10 -5 -7 -10 4 -6 12 -7 18 -3 9 5 9 3 0 -8 -9 -11 -9 -19
-2 -26 12 -12 15 -75 5 -92 -4 -6 0 -23 8 -39 8 -16 12 -33 8 -37 -4 -5 -1 -5
6 -1 8 5 9 13 2 25 -9 18 -4 31 12 31 5 0 6 -10 2 -22 -6 -19 -5 -21 8 -11 12
10 15 10 15 -2 0 -8 -5 -11 -10 -8 -6 4 -8 0 -4 -10 4 -10 2 -16 -5 -14 -7 1
-12 -12 -13 -30 -1 -18 2 -30 7 -27 5 3 15 0 23 -6 8 -6 18 -9 24 -6 5 4 16 0
24 -8 8 -8 18 -12 21 -8 4 3 4 -2 0 -13 -7 -17 -6 -18 8 -7 8 7 24 9 33 5 12
-4 16 -3 11 5 -3 6 -1 14 5 18 8 4 9 3 5 -4 -4 -7 -2 -12 3 -12 6 0 11 4 11 8
0 5 7 9 15 9 8 0 15 -2 15 -3 0 -9 -62 -34 -70 -29 -5 3 -11 1 -14 -4 -4 -5 6
-8 21 -6 16 2 34 -2 42 -9 10 -7 13 -8 8 0 -4 6 3 20 15 30 21 19 21 19 10 -2
-11 -21 0 -55 12 -36 4 6 15 9 25 7 17 -3 19 2 16 33 -2 20 -1 29 2 19 5 -20
19 -22 26 -4 4 9 6 9 6 -1 1 -7 5 -11 11 -7 5 3 7 12 3 20 -6 18 6 19 27 4 13
-9 12 -10 -3 -5 -10 3 -16 2 -13 -3 3 -5 -1 -14 -9 -21 -8 -7 -15 -9 -15 -4 0
11 -20 -18 -20 -29 0 -4 10 2 22 13 12 11 28 18 36 15 7 -2 10 -1 7 4 -3 6 2
14 11 19 15 9 15 10 -5 17 -11 3 -19 11 -15 16 4 6 11 6 20 -2 8 -6 17 -9 21
-5 3 3 1 6 -6 6 -9 0 -9 5 -1 20 6 11 7 20 3 20 -4 0 1 7 11 15 20 15 12 20
-23 16 -7 -2 -10 2 -6 8 3 6 15 11 26 11 10 0 20 5 20 10 1 6 2 15 3 21 0 7
10 16 21 21 18 8 18 8 -2 4 -16 -3 -23 1 -23 11 0 8 5 11 12 7 7 -4 8 -3 4 5
-4 7 -17 9 -29 6 -14 -4 -17 -3 -10 2 7 5 59 8 115 7 144 -2 150 -3 143 -14
-3 -5 -1 -18 4 -28 7 -13 6 -23 -2 -32 -9 -10 -9 -11 2 -5 10 6 12 2 7 -16 -3
-13 -3 -18 0 -11 3 6 10 12 15 12 6 0 8 -4 5 -9 -8 -12 27 -8 37 4 5 6 7 4 5
-4 -2 -8 -14 -15 -26 -16 -13 -1 -28 -8 -35 -15 -9 -10 -9 -11 1 -5 8 4 19 0
28 -11 14 -18 14 -17 4 6 -10 23 -10 24 4 6 9 -10 13 -22 11 -27 -3 -4 1 -9 7
-12 7 -3 3 -4 -9 -4 -13 1 -23 4 -23 8 0 4 -7 10 -15 13 -13 4 -12 1 2 -18 12
-16 20 -20 25 -12 5 7 8 5 8 -6 0 -10 5 -18 11 -18 5 0 8 4 5 9 -3 5 1 12 10
15 8 3 12 2 9 -3 -3 -5 -1 -12 5 -16 5 -3 10 -12 10 -18 0 -8 -3 -7 -9 2 -7
10 -12 11 -27 1 -16 -9 -16 -11 -2 -6 10 3 20 1 24 -5 3 -6 13 -8 21 -5 11 5
13 1 8 -16 -6 -18 -5 -19 7 -7 8 7 13 21 11 30 -3 9 0 20 6 23 6 4 9 1 5 -7
-2 -7 5 -25 16 -38 12 -13 19 -19 16 -13 -4 8 8 11 37 10 37 -1 42 2 39 19 -2
20 -2 20 12 1 14 -17 14 -20 -1 -31 -13 -10 -13 -14 -3 -20 9 -6 11 -4 5 5 -6
10 -4 12 9 7 9 -4 14 -3 11 2 -3 5 -1 12 4 16 5 3 15 -3 21 -12 11 -17 11 -17
6 -1 -6 21 4 23 23 6 11 -10 12 -10 7 -1 -4 7 -16 18 -28 24 -11 6 -18 7 -15
2 4 -5 0 -10 -8 -10 -8 0 -13 2 -10 5 2 3 0 14 -6 26 -9 20 -9 20 5 3 14 -18
14 -18 19 0 4 16 5 16 6 1 0 -10 8 -18 16 -18 14 0 20 12 16 33 -1 5 3 6 9 2
5 -3 11 -1 11 4 1 6 2 17 3 24 0 6 11 13 24 13 12 1 26 4 29 8 11 10 12 37 2
30 -5 -3 -9 2 -9 11 0 9 5 13 10 10 6 -3 10 -1 10 4 0 18 -19 12 -29 -8 -8
-15 -7 -20 6 -25 9 -4 13 -9 10 -12 -3 -3 -16 1 -29 10 -12 9 -16 16 -9 16 7
0 11 6 8 14 -3 8 3 22 13 31 15 13 17 22 10 41 -7 17 -6 23 3 21 7 -1 12 6 12
16 0 20 33 50 46 42 4 -3 10 -1 13 4 4 5 1 13 -5 17 -8 5 -9 3 -4 -6 5 -9 4
-11 -3 -6 -6 4 -21 2 -32 -4 -11 -6 -20 -8 -20 -6 0 10 57 35 64 29 3 -4 6 -2
6 3 0 14 67 37 81 28 8 -4 9 -3 5 4 -4 8 0 12 11 12 11 0 24 5 29 10 7 7 11 7
12 -2 0 -7 3 -23 6 -36 3 -13 1 -20 -5 -17 -5 4 -7 10 -5 14 3 4 1 13 -5 21
-6 11 -9 5 -10 -20 -1 -19 -1 -38 0 -43 0 -4 -4 -7 -11 -7 -6 0 -4 -6 7 -13
12 -10 14 -16 7 -21 -7 -4 -12 -3 -12 2 0 5 -7 9 -16 9 -15 0 -15 -1 0 -12 8
-7 12 -16 8 -21 -4 -4 1 -2 11 5 16 13 25 2 10 -13 -4 -4 -8 -15 -8 -24 0 -9
-6 -16 -12 -15 -7 2 -13 -2 -13 -8 0 -6 7 -9 15 -5 9 3 19 -3 26 -17 11 -20
11 -21 -5 -8 -14 12 -16 12 -10 -3 3 -9 1 -16 -5 -16 -6 0 -11 -5 -11 -11 0
-8 4 -8 15 1 11 9 18 9 34 -2 20 -14 20 -14 0 -26 -11 -7 -17 -17 -14 -22 3
-6 2 -10 -4 -10 -5 0 -12 6 -14 13 -4 7 -6 8 -6 1 -1 -7 10 -19 24 -28 14 -9
25 -23 25 -31 0 -14 10 -18 28 -13 4 2 6 6 5 10 -2 4 4 5 12 1 12 -4 13 -9 5
-18 -8 -9 -8 -15 0 -20 5 -3 11 -4 11 -1 5 22 4 33 -4 43 -6 9 -6 13 1 13 6 0
14 -9 17 -20 4 -11 11 -18 16 -14 5 3 7 9 4 13 -2 5 2 17 10 27 15 19 15 19 8
0 -5 -14 -3 -17 7 -11 9 5 11 4 6 -3 -5 -8 0 -12 14 -12 18 0 19 -3 10 -20 -8
-16 -8 -20 2 -18 7 2 12 -4 10 -12 -2 -8 0 -11 5 -7 4 5 8 14 8 20 0 7 11 11
23 10 13 -2 25 4 28 12 4 8 10 12 15 9 5 -3 6 3 3 13 -5 16 -4 16 6 -1 10 -14
10 -20 0 -26 -8 -5 -7 -9 4 -13 9 -4 15 -1 13 6 -1 7 6 11 15 9 9 -1 19 2 23
8 3 5 0 7 -8 4 -8 -3 -20 3 -27 13 -12 15 -12 16 0 5 20 -17 35 -15 20 3 -11
13 -10 14 3 9 19 -7 30 -32 20 -47 -4 -7 1 -6 10 2 9 7 14 18 10 24 -3 6 -1 7
6 3 7 -4 9 -17 6 -29 -5 -17 -4 -19 4 -7 9 13 13 13 33 1 20 -13 22 -12 11 1
-7 8 -10 18 -6 22 4 4 0 4 -9 1 -9 -4 -18 0 -21 9 -4 9 -2 16 3 16 6 0 10 -4
10 -10 0 -5 4 -9 9 -7 5 1 17 -7 25 -18 14 -17 15 -17 10 -2 -4 10 -3 17 2 16
18 -3 29 2 54 21 21 17 22 19 5 14 -18 -5 -18 -4 3 14 13 13 18 23 12 27 -6 3
-8 10 -5 15 3 5 1 11 -4 15 -6 3 -8 -5 -6 -18 4 -17 0 -23 -15 -24 -18 -2 -19
0 -5 13 8 9 13 19 10 24 -3 4 2 13 10 20 7 6 11 19 8 28 -6 14 -5 15 9 2 16
-14 16 -16 0 -28 -18 -14 -4 -16 18 -2 12 7 12 12 2 22 -18 18 -14 32 6 17 9
-7 14 -9 10 -5 -4 5 -3 15 4 23 8 10 8 17 -1 26 -10 9 -11 8 -6 -4 4 -10 2
-20 -3 -23 -5 -3 -9 12 -8 33 1 28 5 37 14 33 9 -3 10 -7 3 -11 -6 -4 -1 -12
12 -20 21 -13 21 -13 7 4 -14 17 -13 18 5 12 16 -6 15 -3 -5 14 -17 14 -19 19
-7 15 9 -3 17 -1 17 4 0 6 -5 10 -12 10 -15 0 0 15 15 15 7 1 15 -4 19 -9 3
-5 5 9 5 30 -2 30 1 38 13 36 12 -3 13 -1 3 9 -18 19 -16 28 5 22 13 -3 18
-13 17 -31 -1 -15 -6 -26 -12 -25 -5 1 -10 -5 -10 -13 0 -8 4 -14 9 -14 4 0 8
5 8 11 0 5 4 8 9 4 5 -3 13 0 17 6 5 8 3 9 -7 4 -8 -5 -11 -4 -6 0 4 5 17 10
28 12 16 2 15 -2 -11 -27 -17 -17 -26 -30 -20 -30 12 0 9 -22 -5 -32 -6 -5 -4
-8 5 -8 13 0 13 -1 0 -10 -8 -5 -10 -10 -5 -10 15 0 17 -50 2 -50 -6 0 -4 -5
6 -11 9 -5 17 -15 17 -21 0 -7 -5 -7 -14 1 -10 8 -16 9 -21 1 -4 -6 -3 -10 2
-9 16 4 62 -24 56 -34 -4 -7 1 -8 13 -4 16 6 17 5 4 -5 -14 -11 -16 -26 -11
-69 0 -6 8 -8 16 -5 9 3 18 -1 21 -9 4 -8 10 -13 15 -10 4 3 6 12 2 20 -6 18
13 20 23 4 5 -8 13 -4 26 12 19 23 19 23 8 2 -7 -16 -8 -23 0 -23 8 0 8 -6 0
-20 -8 -16 -8 -20 2 -18 7 2 12 -4 10 -12 -2 -8 0 -11 5 -7 4 5 8 14 8 20 0 7
10 12 22 12 12 0 28 9 36 19 11 14 16 16 22 6 4 -7 2 -16 -5 -20 -8 -5 -7 -9
5 -13 9 -4 13 -3 10 2 -3 5 -1 13 5 16 8 5 7 11 -1 21 -10 12 -9 17 0 27 10 9
11 8 5 -7 -6 -15 -4 -17 6 -11 9 5 11 4 6 -3 -4 -7 -2 -12 5 -12 9 0 9 -3 0
-14 -9 -11 -9 -16 0 -22 7 -4 9 -3 5 4 -3 6 -2 13 3 17 6 3 8 13 5 23 -5 15
-5 15 6 -1 6 -9 8 -23 4 -30 -5 -8 -3 -8 9 2 12 10 14 18 7 32 -8 15 -7 17 4
13 9 -4 13 -16 11 -35 -3 -24 -2 -27 9 -16 8 6 11 19 8 27 -3 8 -2 12 3 8 4
-4 15 -3 22 4 11 9 17 9 24 -3 5 -8 9 -9 9 -4 0 6 7 1 15 -9 8 -11 15 -15 15
-9 0 6 8 10 18 9 10 0 16 6 16 17 -2 20 12 23 19 5 2 -7 3 -5 2 4 -2 10 1 20
6 23 4 3 5 13 2 22 -4 11 -3 14 5 9 8 -5 10 -1 5 10 -4 12 -3 15 5 10 7 -4 12
-2 12 3 0 6 -5 11 -11 11 -5 0 -7 5 -3 12 4 7 3 8 -5 4 -6 -4 -9 -11 -6 -16 3
-4 -2 -13 -10 -20 -12 -10 -13 -16 -3 -29 10 -13 10 -14 -2 -4 -14 13 -23 43
-12 42 20 -3 23 3 11 18 -12 14 -12 16 0 8 11 -6 13 -4 8 8 -8 20 22 11 40
-12 6 -9 15 -13 19 -8 4 4 2 7 -5 7 -7 0 -9 5 -6 10 3 6 1 10 -5 10 -6 0 -8 5
-5 10 5 8 12 7 23 -2 15 -11 15 -11 6 2 -14 20 -12 42 5 48 9 3 11 0 6 -8 -5
-8 -4 -11 3 -6 6 3 9 15 7 26 -2 11 3 26 11 34 12 13 12 15 -5 13 -12 -1 -17
-6 -13 -16 3 -9 1 -12 -7 -7 -6 4 -9 16 -6 27 4 11 2 19 -4 19 -6 0 -11 5 -11
11 0 8 4 9 13 0 8 -6 18 -7 22 -3 5 4 5 2 2 -4 -3 -6 0 -11 7 -11 11 0 12 4 3
18 -6 10 -15 15 -19 13 -4 -3 -8 0 -8 5 0 6 4 11 9 11 5 0 8 10 7 23 -2 16 2
23 15 23 12 0 15 -4 9 -12 -6 -6 -7 -14 -3 -18 4 -4 1 -11 -6 -15 -8 -6 -9
-11 -3 -15 10 -6 23 18 21 38 0 5 5 13 13 17 10 7 10 9 0 9 -7 0 -10 5 -7 10
4 6 12 7 18 4 8 -5 8 -3 0 7 -17 17 -17 37 -1 21 7 -7 17 -12 22 -12 6 0 4 5
-4 10 -8 5 -10 10 -4 10 13 0 15 31 2 47 -6 7 -15 10 -22 6 -6 -4 -5 1 3 10 9
11 10 17 2 17 -6 0 -11 4 -11 10 0 5 6 9 13 7 7 -1 12 9 11 26 0 26 1 27 13
11 9 -12 9 -21 3 -29 -8 -9 -5 -14 10 -18 15 -4 19 -2 13 6 -5 7 -8 21 -8 32
0 11 -4 23 -10 27 -6 5 -4 8 5 8 11 0 12 2 3 8 -9 6 -6 11 8 21 17 10 20 10
13 -1 -17 -26 -12 -54 10 -55 12 -1 15 1 8 4 -10 4 -10 8 0 21 10 12 10 14 1
8 -8 -4 -13 -2 -13 8 0 17 16 30 23 19 2 -5 2 -3 1 4 -2 6 2 14 9 17 9 3 9 5
0 5 -7 1 -13 8 -13 17 0 8 -4 12 -10 9 -5 -3 -10 -1 -10 4 0 15 30 14 30 -1 1
-13 24 21 25 35 0 4 7 12 15 17 10 7 11 10 3 10 -7 0 -12 3 -12 8 4 22 -2 42
-11 37 -17 -11 -11 11 8 28 15 14 19 15 19 2 0 -8 -4 -12 -9 -9 -11 7 -10 -7
2 -26 8 -13 10 -12 11 5 1 11 1 23 0 28 -2 12 17 8 21 -5 3 -8 6 -7 10 3 6 16
-2 19 -52 20 -23 1 -23 2 -5 12 36 19 67 55 54 62 -6 4 -15 1 -20 -6 -5 -8 -9
-9 -9 -3 0 6 7 17 15 24 9 7 15 8 15 2 0 -5 8 -13 17 -16 10 -4 14 -4 10 0
-10 10 13 35 27 27 6 -3 6 0 -1 7 -11 12 -15 11 -25 -3 -12 -16 -14 -16 -25 2
-11 18 -10 19 5 14 9 -3 14 -3 10 2 -4 4 0 21 8 37 12 23 18 27 29 18 11 -9
12 -7 8 10 -5 19 -7 19 -28 6 -16 -11 -22 -11 -22 -2 0 7 5 13 11 13 6 0 18 4
28 8 11 4 18 0 23 -15 4 -12 9 -19 12 -17 2 3 -1 15 -7 28 -11 19 -10 21 4 16
23 -9 20 0 -5 14 -17 9 -20 8 -14 -2 5 -7 4 -10 -3 -5 -5 3 -12 0 -15 -6 -3
-10 -8 -10 -18 1 -8 8 -9 11 -3 8 12 -7 37 17 47 45 4 10 11 18 17 18 6 0 4
-10 -5 -23 -13 -20 -13 -24 -1 -24 8 0 12 6 9 14 -3 7 0 13 7 13 7 0 10 6 7
14 -3 7 1 23 8 34 8 10 11 22 8 26 -3 3 2 6 13 6 14 0 16 2 6 9 -8 4 -12 11
-10 15 1 4 -8 14 -22 22 -24 14 -24 15 -2 8 21 -5 23 -4 13 14 -14 26 0 36 37
28 15 -3 21 -3 15 0 -7 3 -13 10 -13 15 0 6 5 7 12 3 7 -5 8 -3 3 6 -6 10 -4
12 10 7 16 -7 16 -6 2 17 -13 20 -14 26 -3 35 7 6 16 8 20 4 4 -4 4 0 0 10 -6
17 -7 17 -20 0 -11 -14 -14 -15 -13 -3 1 8 1 26 0 40 l-1 25 -13 -25 c-11 -20
-11 -27 0 -38 16 -17 16 -19 -2 -25 -8 -4 -17 -1 -21 5 -4 7 -3 8 4 4 13 -8
17 6 5 18 -10 9 -13 37 -4 31 4 -2 8 2 8 9 0 8 -6 12 -14 9 -7 -3 -13 -10 -13
-17 0 -7 -3 -7 -8 -1 -16 23 -49 34 -63 22 -11 -10 -11 -9 -1 4 6 9 9 19 5 22
-3 4 -1 7 5 7 7 0 12 -4 12 -9 0 -9 9 -13 44 -23 5 -2 10 7 11 19 1 15 -3 19
-13 15 -9 -3 -13 -1 -9 5 3 5 0 10 -8 10 -13 0 -12 -4 2 -19 9 -10 11 -18 5
-18 -6 0 -18 10 -26 22 -9 12 -16 18 -16 13 0 -6 -5 -3 -10 5 -7 11 -10 11
-10 2 0 -7 -5 -10 -10 -7 -6 4 -7 12 -3 18 4 7 0 6 -10 -2 -21 -16 -13 -31 13
-26 18 3 19 1 9 -18 -17 -33 -22 -35 -15 -7 6 23 6 23 -7 8 -15 -18 -33 -25
-23 -9 3 5 -10 18 -28 29 -25 15 -36 17 -40 9 -3 -9 -5 -8 -5 1 -1 7 6 15 14
18 8 4 12 10 9 16 -4 5 -11 5 -18 -1 -9 -8 -13 -7 -13 4 0 8 4 12 9 9 4 -3 8
-1 8 5 0 5 -6 11 -12 14 -10 3 -10 7 -1 17 9 10 8 16 -3 28 -8 8 -13 20 -10
28 3 7 0 15 -7 18 -7 2 -5 5 5 5 22 1 32 17 17 27 -8 4 -9 3 -5 -4 5 -8 2 -10
-8 -6 -15 6 -17 10 -20 44 -1 8 -8 14 -15 12 -7 -1 -10 2 -6 8 3 6 11 8 16 5
5 -4 9 -1 9 4 0 6 -5 11 -11 11 -5 0 -7 5 -4 10 10 16 27 0 22 -21 -3 -10 -2
-18 2 -17 19 2 31 -3 26 -12 -3 -5 -12 -7 -20 -3 -8 3 -15 0 -15 -7 0 -6 5 -8
12 -4 7 5 8 3 3 -6 -5 -9 -4 -11 4 -6 12 8 41 -10 41 -25 0 -5 -7 -9 -15 -9
-8 0 -15 -4 -15 -10 0 -5 5 -9 11 -7 6 1 14 -5 16 -13 4 -12 3 -12 -5 -2 -7
11 -10 11 -15 -3 -4 -9 -3 -13 3 -10 5 3 7 -4 5 -15 -2 -11 0 -18 5 -15 5 3 7
-7 4 -22 -4 -22 -2 -25 7 -13 9 13 10 13 5 -2 -7 -23 7 -30 29 -14 18 13 18
14 -3 32 l-22 18 21 12 c19 10 19 12 5 17 -11 5 -15 3 -10 -4 4 -7 1 -10 -6
-7 -7 2 -14 16 -16 32 -2 24 -1 26 14 14 15 -12 16 -11 4 4 -8 9 -10 23 -6 29
4 7 3 9 -3 6 -6 -4 -16 0 -23 8 -9 11 -9 19 3 35 7 11 17 17 22 12 5 -4 5 -1
1 6 -5 7 -10 11 -14 8 -3 -3 -11 2 -19 12 -13 15 -13 14 -3 -6 13 -26 10 -35
-7 -24 -17 10 -24 60 -10 66 8 3 9 5 1 5 -6 1 -17 -6 -24 -14 -25 -31 -49 -14
-45 33 1 18 -2 21 -19 17 -12 -3 -16 -2 -10 1 19 8 5 44 -14 37 -14 -5 -15 -3
-5 7 9 10 7 17 -12 32 -15 12 -22 25 -18 35 4 10 2 14 -4 10 -6 -4 -13 3 -16
14 -3 12 -10 18 -16 15 -18 -12 -31 27 -15 49 17 22 18 35 3 35 -5 0 -8 -4 -5
-9 7 -11 -22 -36 -31 -27 -11 10 -10 66 0 59 5 -3 7 0 5 8 -3 8 -10 13 -15 12
-11 -2 -10 44 2 54 4 5 5 2 1 -4 -5 -9 -2 -11 9 -6 13 4 14 8 4 13 -7 5 -17 6
-23 4 -7 -3 -12 8 -12 28 -1 18 -3 47 -5 63 -3 21 0 29 9 27 8 -1 11 2 7 8 -3
6 -11 8 -16 4 -6 -3 -10 11 -9 38 1 23 -1 54 -4 68 -6 21 -5 22 3 5 9 -20 10
-20 10 1 1 11 4 24 8 28 4 3 8 20 9 37 2 28 1 29 -10 13 -13 -17 -14 -16 -26
5 -8 15 -8 21 -1 17 6 -4 11 -2 11 4 0 6 4 9 8 6 5 -3 9 1 9 8 0 7 -6 13 -13
13 -7 0 -11 -3 -9 -7 2 -4 -2 -7 -9 -7 -7 0 -13 6 -13 13 0 7 4 11 9 8 4 -3 8
0 8 6 0 6 5 8 13 4 9 -6 9 -4 1 7 -5 8 -9 24 -8 37 1 18 -1 20 -12 11 -16 -13
-19 1 -4 19 6 6 7 10 4 7 -4 -3 -14 1 -22 8 -13 10 -14 9 -7 -3 5 -8 10 -19
11 -25 0 -5 2 -17 3 -25 1 -13 2 -13 11 0 7 12 9 10 7 -8 0 -12 -4 -22 -8 -22
-9 0 -30 51 -32 78 -1 12 -5 22 -10 22 -5 0 -7 9 -4 20 3 11 2 18 -2 16 -4 -3
-20 30 -35 72 -80 215 -233 457 -403 641 -24 25 -43 49 -43 54 0 4 -5 5 -12 1
-8 -5 -9 0 -6 14 4 13 2 20 -3 16 -6 -3 -21 7 -34 22 -18 21 -21 30 -12 37 9
6 8 7 -3 6 -31 -3 -42 1 -37 15 4 9 1 13 -6 10 -15 -5 -69 40 -59 51 4 5 1 5
-5 1 -12 -7 -21 -2 -58 32 -8 7 -15 11 -15 7 0 -4 -7 0 -15 7 -34 31 -58 45
-148 89 -34 17 -83 41 -109 55 -26 13 -58 23 -70 23 -13 -1 -54 10 -93 24 -63
23 -134 44 -175 52 -8 2 -33 8 -55 14 -22 5 -66 13 -98 16 -32 4 -68 9 -80 11
-22 6 -335 13 -339 8z m1997 -1523 c-1 -8 -8 -17 -16 -19 -8 -3 -11 -1 -7 3 4
5 4 13 -2 19 -6 8 -3 12 9 12 11 0 18 -7 16 -15z m319 -910 c15 -17 15 -19 1
-25 -10 -3 -14 -2 -10 5 4 5 1 16 -5 24 -18 22 -6 18 14 -4z m-4390 -56 c3 -8
1 -15 -4 -15 -6 0 -10 7 -10 15 0 8 2 15 4 15 2 0 6 -7 10 -15z m262 -17 c4
-6 3 -8 -3 -5 -6 4 -16 0 -23 -8 -7 -8 -18 -15 -24 -15 -6 0 0 9 14 20 30 23
27 23 36 8z m-111 -18 c3 -5 1 -10 -4 -10 -6 0 -11 5 -11 10 0 6 2 10 4 10 3
0 8 -4 11 -10z m155 0 c8 -5 11 -10 5 -10 -5 0 -17 5 -25 10 -8 5 -10 10 -5
10 6 0 17 -5 25 -10z m-43 -42 c-3 -8 -6 -5 -6 6 -1 11 2 17 5 13 3 -3 4 -12
1 -19z m65 15 c-6 -2 -10 -9 -7 -14 4 -5 -1 -6 -10 -2 -13 5 -14 7 -3 14 7 5
18 8 23 8 6 0 4 -3 -3 -6z m-278 -14 c3 -3 -9 -5 -27 -4 -17 1 -38 -2 -45 -8
-9 -7 -11 -6 -6 6 5 15 65 19 78 6z m4436 1 c0 -5 -5 -10 -11 -10 -5 0 -7 5
-4 10 3 6 8 10 11 10 2 0 4 -4 4 -10z m-4586 -18 c2 -4 0 -14 -6 -22 -8 -12
-9 -11 -4 4 5 15 2 17 -14 13 -11 -3 -18 -1 -14 4 6 11 31 12 38 1z m401 -2
c-3 -5 -2 -10 3 -10 6 0 13 -8 16 -17 4 -10 4 -14 0 -10 -4 4 -13 2 -21 -4 -9
-9 -13 -8 -13 0 0 6 5 11 11 11 8 0 9 4 0 13 -6 8 -8 17 -4 20 10 10 15 8 8
-3z m-419 -70 c0 -12 -4 -16 -9 -11 -5 5 -6 14 -3 20 10 15 12 14 12 -9z m441
5 c0 -8 -3 -15 -6 -15 -3 0 -7 -11 -7 -25 -1 -14 1 -23 5 -20 13 7 6 -32 -8
-49 -8 -9 -10 -16 -5 -16 5 0 1 -5 -8 -11 -10 -5 -18 -15 -18 -21 0 -7 6 -6
15 2 28 23 22 6 -9 -25 -16 -16 -25 -23 -19 -15 6 8 10 28 8 43 -2 16 -1 26 2
23 8 -8 33 27 27 36 -3 5 -10 8 -15 8 -6 0 -7 -5 -3 -12 4 -7 3 -8 -5 -4 -15
10 -3 29 15 22 8 -3 14 -1 14 4 0 6 -5 10 -11 10 -8 0 -8 4 0 14 6 8 11 18 10
22 -1 5 -1 17 0 27 1 21 18 23 18 2z m4267 6 c3 -4 -4 -17 -15 -27 -19 -17
-20 -17 -13 2 7 17 6 18 -12 4 -17 -14 -18 -14 -6 2 8 10 20 14 29 11 11 -4
14 -2 9 5 -4 7 -5 12 -2 12 3 0 7 -4 10 -9z m-4306 -46 c-3 -3 -9 2 -12 12 -6
14 -5 15 5 6 7 -7 10 -15 7 -18z m-439 -12 c-4 -28 2 -33 24 -23 20 10 20 10
5 -3 -10 -8 -15 -16 -12 -19 3 -4 0 -9 -7 -14 -7 -4 -10 -3 -6 3 4 6 -2 18
-13 28 -16 14 -17 20 -8 27 16 10 18 10 17 1z m277 -19 c1 -9 0 -13 -4 -10 -3
4 -7 14 -8 22 -1 9 0 13 4 10 3 -4 7 -14 8 -22z m3899 17 c-9 -8 -36 -10 -30
-2 2 4 11 8 20 8 8 0 13 -3 10 -6z m22 -10 c0 -11 -5 -17 -9 -15 -4 3 -8 0 -8
-7 0 -7 -3 -10 -6 -7 -4 5 16 48 23 48 1 0 1 -9 0 -19z m-72 -11 c3 -6 -1 -7
-9 -4 -18 7 -21 14 -7 14 6 0 13 -4 16 -10z m110 -20 c3 -5 1 -10 -4 -10 -6 0
-11 5 -11 10 0 6 2 10 4 10 3 0 8 -4 11 -10z m-3977 -25 c-3 -3 -9 2 -12 12
-6 14 -5 15 5 6 7 -7 10 -15 7 -18z m3956 9 c3 -8 2 -12 -4 -9 -6 3 -10 10
-10 16 0 14 7 11 14 -7z m-4021 -12 c14 -15 14 -19 3 -19 -8 0 -14 5 -13 11 1
6 -4 10 -11 8 -8 -1 -11 2 -7 8 8 13 9 13 28 -8z m127 14 c0 -2 -7 -7 -16 -10
-8 -3 -12 -2 -9 4 6 10 25 14 25 6z m3846 -14 c-4 -13 -1 -19 9 -19 11 0 14 7
10 21 -5 16 -4 18 4 6 5 -9 11 -22 13 -30 2 -8 8 -19 13 -23 6 -5 3 -7 -7 -3
-10 3 -20 1 -23 -4 -6 -9 8 -14 28 -11 4 0 7 -4 7 -10 0 -6 -9 -8 -20 -4 -25
8 -26 -3 -3 -20 16 -12 14 -12 -10 -8 -15 3 -25 9 -22 12 5 9 -26 7 -42 -2 -6
-4 -15 -2 -19 4 -4 8 -3 9 4 5 6 -4 17 2 24 14 7 11 17 20 22 20 4 0 2 -8 -5
-17 -12 -16 -12 -17 2 -6 9 7 18 10 22 7 3 -3 4 2 3 13 -2 10 -10 17 -18 15
-9 -1 -18 5 -22 13 -3 9 -2 13 3 10 5 -3 12 4 16 15 3 11 9 20 11 20 3 0 3 -8
0 -18z m524 -13 c-5 -9 -7 -19 -4 -22 6 -6 -45 -47 -60 -47 -6 0 4 9 22 20 19
12 30 25 26 31 -4 8 -9 7 -16 -2 -8 -11 -9 -11 -5 1 2 8 10 14 16 13 15 -4 14
14 -1 20 -7 3 -3 4 9 4 17 -1 20 -5 13 -18z m-4218 -47 c-7 -2 -12 -11 -12
-19 0 -9 -3 -14 -6 -10 -10 10 7 48 19 40 8 -5 8 -8 -1 -11z m3658 14 c0 -2
-8 -10 -17 -17 -16 -13 -17 -12 -4 4 13 16 21 21 21 13z m285 -5 c-9 -8 -36
-10 -30 -2 2 4 11 8 20 8 8 0 13 -3 10 -6z m65 -6 c0 -2 -9 -3 -19 -2 -11 0
-18 5 -15 9 4 6 34 0 34 -7z m-4280 -10 c0 -7 -30 -13 -34 -7 -3 4 4 9 15 9
10 1 19 0 19 -2z m80 -7 c0 -6 -3 -8 -7 -5 -3 4 -13 1 -22 -6 -14 -11 -14 -10
-2 6 15 20 31 22 31 5z m4095 -18 c3 -5 1 -10 -4 -10 -6 0 -11 5 -11 10 0 6 2
10 4 10 3 0 8 -4 11 -10z m-4158 -15 c0 -8 -4 -15 -9 -15 -10 0 -11 14 -1 23
9 10 10 9 10 -8z m59 -11 c-1 -8 -6 -17 -12 -21 -5 -4 -6 -4 -2 1 4 5 3 14 -2
21 -7 8 -5 12 4 12 8 0 13 -6 12 -13z m174 12 c0 -2 -7 -6 -15 -10 -8 -3 -15
-1 -15 4 0 6 7 10 15 10 8 0 15 -2 15 -4z m3731 -12 c20 -9 24 -13 12 -10 -27
5 -29 -1 -7 -25 15 -16 15 -20 1 -34 -19 -18 -31 -20 -20 -2 12 20 12 35 -2
47 -14 12 -48 3 -39 -11 3 -5 1 -9 -5 -9 -24 0 -19 19 9 32 25 11 27 14 12 20
-9 3 -12 7 -6 7 7 1 27 -6 45 -15z m-3726 -14 c-3 -5 -11 -10 -16 -10 -6 0 -7
5 -4 10 3 6 11 10 16 10 6 0 7 -4 4 -10z m3995 6 c0 -2 -8 -10 -17 -17 -16
-13 -17 -12 -4 4 13 16 21 21 21 13z m-4250 -22 c0 -8 -19 -13 -24 -6 -3 5 1
9 9 9 8 0 15 -2 15 -3z m54 -2 c3 -5 -1 -9 -9 -9 -8 0 -12 4 -9 9 3 4 7 8 9 8
2 0 6 -4 9 -8z m3746 -2 c0 -5 -2 -10 -4 -10 -3 0 -8 5 -11 10 -3 6 -1 10 4
10 6 0 11 -4 11 -10z m163 -10 c3 -11 1 -23 -4 -26 -6 -4 -6 -11 1 -19 8 -9 6
-17 -5 -29 -9 -9 -12 -16 -6 -16 6 0 11 -5 11 -11 0 -5 -4 -7 -10 -4 -5 3 -10
-1 -10 -10 0 -9 4 -14 8 -11 4 2 8 -5 9 -17 0 -12 -1 -16 -4 -9 -3 6 -10 9
-15 6 -7 -5 -8 -2 -3 6 6 10 4 12 -11 6 -15 -6 -17 -5 -6 5 6 7 12 17 12 22 0
4 -6 5 -12 1 -7 -4 -5 2 5 13 11 12 14 24 9 27 -6 3 -12 0 -15 -6 -2 -7 -8 -9
-13 -5 -5 4 -2 12 5 16 7 5 11 14 7 20 -5 7 -1 9 8 5 12 -5 16 1 16 25 0 35
15 42 23 11z m-3698 -8 c-3 -3 -11 0 -18 7 -9 10 -8 11 6 5 10 -3 15 -9 12
-12z m-234 -9 c13 -16 12 -17 -3 -4 -10 7 -18 15 -18 17 0 8 8 3 21 -13z
m4165 -8 c1 -8 -1 -17 -5 -19 -4 -3 -7 6 -7 19 0 25 8 25 12 0z m35 8 c13 -16
12 -17 -3 -4 -17 13 -22 21 -14 21 2 0 10 -8 17 -17z m-4234 -6 c0 -8 -6 -14
-14 -14 -9 0 -10 4 -2 14 6 7 12 13 14 13 1 0 2 -6 2 -13z m-150 -19 c-3 -8
-6 -5 -6 6 -1 11 2 17 5 13 3 -3 4 -12 1 -19z m413 7 c0 -8 -4 -15 -10 -15 -5
0 -7 7 -4 15 4 8 8 15 10 15 2 0 4 -7 4 -15z m3455 -3 c-3 -3 -11 0 -18 7 -9
10 -8 11 6 5 10 -3 15 -9 12 -12z m-3678 -17 c0 -8 -4 -12 -9 -9 -5 3 -6 10
-3 15 9 13 12 11 12 -6z m59 3 c4 -6 3 -8 -4 -4 -6 3 -15 -2 -21 -11 -6 -10
-11 -13 -11 -7 0 9 19 34 26 34 2 0 6 -5 10 -12z m165 -30 c12 -12 14 -18 6
-21 -9 -3 -9 -7 0 -17 6 -7 9 -19 6 -27 -5 -12 -7 -12 -14 -2 -4 8 -11 10 -15
6 -4 -3 -1 -13 6 -22 7 -9 10 -18 7 -21 -3 -3 -11 4 -17 17 -10 18 -10 25 1
33 17 13 21 49 5 43 -6 -3 -10 -10 -8 -16 1 -7 -2 -10 -8 -6 -5 3 -10 1 -10
-6 0 -7 -3 -9 -6 -6 -4 4 -2 13 4 20 7 8 8 18 4 22 -4 5 -1 5 6 1 17 -10 15 4
-5 28 -17 20 -17 20 2 6 10 -8 27 -23 36 -32z m3993 31 c3 -3 -4 -5 -14 -6
-11 -1 -20 2 -20 7 0 8 25 8 34 -1z m-479 -8 c3 -5 2 -12 -3 -15 -5 -3 -9 1
-9 9 0 17 3 19 12 6z m-3935 -11 c0 -5 -2 -10 -4 -10 -3 0 -8 5 -11 10 -3 6
-1 10 4 10 6 0 11 -4 11 -10z m4357 -8 c0 -10 -6 -19 -13 -19 -9 0 -9 5 -1 19
7 10 13 18 14 18 1 0 1 -8 0 -18z m38 -1 c3 -5 2 -12 -3 -15 -5 -3 -9 1 -9 9
0 17 3 19 12 6z m-495 -67 c0 -8 -19 -13 -24 -6 -3 5 1 9 9 9 8 0 15 -2 15 -3z
m45 -3 c-9 -8 -36 -10 -30 -2 2 4 11 8 20 8 8 0 13 -3 10 -6z m333 -12 c9 -12
9 -16 -1 -16 -7 0 -14 9 -14 20 -1 11 -1 18 0 16 2 -2 8 -11 15 -20z m59 6 c0
-8 -4 -12 -9 -9 -4 3 -8 9 -8 15 0 5 4 9 8 9 5 0 9 -7 9 -15z m-244 -22 c-10
-3 -10 -10 -2 -26 10 -21 10 -21 -5 -3 -9 11 -16 16 -16 11 0 -4 -3 -5 -7 -2
-3 4 2 14 13 21 10 8 21 12 24 9 3 -3 -1 -8 -7 -10z m-4093 -6 c0 -5 -7 -6
-16 -3 -13 5 -14 4 -6 -7 7 -8 9 -17 5 -20 -3 -4 2 -7 13 -8 10 0 14 -3 7 -5
-7 -3 -10 -11 -7 -18 3 -8 -1 -16 -9 -19 -10 -4 -13 3 -12 28 2 22 -2 36 -12
39 -8 3 -12 10 -8 15 7 12 45 10 45 -2z m3900 -8 c0 -5 -4 -9 -8 -9 -5 0 -9 7
-9 15 0 8 4 12 9 9 4 -3 8 -9 8 -15z m-3656 1 c2 -3 -13 -5 -34 -5 -21 0 -41
3 -44 6 -3 3 12 5 34 4 21 0 41 -2 44 -5z m154 -19 c-2 -9 3 -15 10 -13 6 1
12 -2 12 -8 0 -14 -11 -12 -34 5 -12 9 -15 15 -7 15 11 0 11 3 1 15 -11 13
-10 14 4 9 9 -3 15 -14 14 -23z m3936 21 c3 -5 -1 -9 -9 -9 -8 0 -12 4 -9 9 3
4 7 8 9 8 2 0 6 -4 9 -8z m-4138 -34 c5 4 6 3 2 -2 -4 -5 -3 -15 3 -23 21 -25
3 -13 -22 14 -13 15 -17 22 -8 15 9 -6 20 -8 25 -4z m3882 -13 c-3 -3 -9 2
-12 12 -6 14 -5 15 5 6 7 -7 10 -15 7 -18z m-3923 5 c3 -5 1 -10 -4 -10 -6 0
-11 5 -11 10 0 6 2 10 4 10 3 0 8 -4 11 -10z m3750 1 c-9 -8 -36 -10 -30 -2 2
4 11 8 20 8 8 0 13 -3 10 -6z m-3509 -37 c1 -9 0 -13 -4 -10 -3 4 -7 14 -8 22
-1 9 0 13 4 10 3 -4 7 -14 8 -22z m500 0 c1 -9 0 -13 -4 -10 -3 4 -7 14 -8 22
-1 9 0 13 4 10 3 -4 7 -14 8 -22z m3381 11 c0 -8 -4 -12 -9 -9 -5 3 -6 10 -3
15 9 13 12 11 12 -6z m43 11 c0 -3 -4 -8 -10 -11 -5 -3 -10 -1 -10 4 0 6 5 11
10 11 6 0 10 -2 10 -4z m-4164 -26 c0 -12 -4 -16 -9 -11 -5 5 -6 14 -3 20 10
15 12 14 12 -9z m124 6 c0 -2 -7 -7 -16 -10 -8 -3 -12 -2 -9 4 6 10 25 14 25
6z m4037 -21 c0 -8 -4 -12 -9 -9 -5 3 -6 10 -3 15 9 13 12 11 12 -6z m-4107 1
c0 -2 -8 -10 -17 -17 -16 -13 -17 -12 -4 4 13 16 21 21 21 13z m174 -4 c3 -5
-1 -9 -9 -9 -8 0 -12 4 -9 9 3 4 7 8 9 8 2 0 6 -4 9 -8z m192 -18 c1 -9 0 -13
-4 -10 -3 4 -7 14 -8 22 -1 9 0 13 4 10 3 -4 7 -14 8 -22z m3648 18 c3 -5 -1
-9 -9 -9 -8 0 -12 4 -9 9 3 4 7 8 9 8 2 0 6 -4 9 -8z m251 -20 c-2 -9 -4 -18
-5 -19 -2 -2 -3 -7 -4 -12 -2 -19 -12 -19 -36 0 -21 18 -22 19 -3 10 14 -7 24
-8 28 -1 3 5 0 10 -7 10 -9 1 -7 5 4 14 10 7 14 17 10 21 -4 5 -2 5 5 2 6 -4
10 -15 8 -25z m-4474 -5 c-5 -5 -7 -15 -5 -22 3 -7 1 -16 -5 -20 -6 -3 -11 -1
-11 5 0 6 -5 8 -12 4 -7 -5 -8 -3 -2 7 5 8 9 17 10 22 3 13 4 14 19 14 10 0
12 -4 6 -10z m156 -2 c0 -8 -4 -12 -9 -9 -4 3 -8 9 -8 15 0 5 4 9 8 9 5 0 9
-7 9 -15z m700 0 c0 -8 -4 -12 -9 -9 -5 3 -6 10 -3 15 9 13 12 11 12 -6z
m2740 0 c0 -8 -4 -12 -9 -9 -5 3 -6 10 -3 15 9 13 12 11 12 -6z m283 -15 c0
-4 -7 -7 -15 -6 -23 3 -26 12 -5 13 11 1 20 -2 20 -7z m-3639 -17 c13 -16 12
-17 -3 -4 -10 7 -18 15 -18 17 0 8 8 3 21 -13z m-81 3 c0 -3 -4 -8 -10 -11 -5
-3 -10 -1 -10 4 0 6 5 11 10 11 6 0 10 -2 10 -4z m3411 -19 c-10 -9 -11 -8 -5
6 3 10 9 15 12 12 3 -3 0 -11 -7 -18z m-2731 -7 c0 -5 -2 -10 -4 -10 -3 0 -8
5 -11 10 -3 6 -1 10 4 10 6 0 11 -4 11 -10z m80 6 c0 -3 -4 -8 -10 -11 -5 -3
-10 -1 -10 4 0 6 5 11 10 11 6 0 10 -2 10 -4z m3317 -13 c0 -9 -4 -10 -14 -2
-7 6 -13 12 -13 14 0 1 6 2 13 2 8 0 14 -6 14 -14z m-82 -2 c3 -5 2 -12 -3
-15 -5 -3 -9 1 -9 9 0 17 3 19 12 6z m45 5 c0 -2 -8 -10 -17 -17 -16 -13 -17
-12 -4 4 13 16 21 21 21 13z m-3994 -18 c3 -4 -1 -5 -10 -4 -8 1 -18 5 -22 8
-3 4 1 5 10 4 8 -1 18 -5 22 -8z m4227 -21 c-5 -8 -8 -7 -11 1 -3 10 -7 10
-17 2 -10 -8 -15 -8 -21 1 -4 7 -3 9 4 5 6 -3 13 -2 17 3 3 6 12 8 20 5 8 -4
12 -11 8 -17z m-3908 3 c3 -6 -1 -7 -9 -4 -18 7 -21 14 -7 14 6 0 13 -4 16
-10z m35 0 c0 -5 -2 -10 -4 -10 -3 0 -8 5 -11 10 -3 6 -1 10 4 10 6 0 11 -4
11 -10z m260 6 c0 -3 -4 -8 -10 -11 -5 -3 -10 -1 -10 4 0 6 5 11 10 11 6 0 10
-2 10 -4z m2897 -23 c1 -24 0 -25 -6 -8 -7 17 -6 35 2 35 2 0 3 -12 4 -27z
m-3497 13 c0 -2 -8 -10 -17 -17 -16 -13 -17 -12 -4 4 13 16 21 21 21 13z
m3660 0 c0 -2 -8 -10 -17 -17 -16 -13 -17 -12 -4 4 13 16 21 21 21 13z m-3704
-18 c4 -7 4 -10 -1 -6 -4 4 -15 2 -24 -5 -14 -11 -14 -10 -2 6 16 20 18 21 27
5z m981 5 c-4 -3 -1 -13 6 -22 11 -14 10 -14 -5 -2 -16 12 -16 31 -1 31 4 0 3
-3 0 -7z m3040 0 c-4 -3 -1 -13 6 -22 11 -14 10 -14 -5 -2 -16 12 -16 31 -1
31 4 0 3 -3 0 -7z m55 -4 c2 -2 1 -3 -1 -2 -2 2 -9 -2 -16 -7 -8 -7 -12 -5
-12 4 0 12 22 16 29 5z m-3559 -22 c7 4 6 -1 -2 -10 -7 -9 -19 -17 -25 -17 -6
0 -4 5 4 10 11 7 11 10 2 10 -8 0 -10 5 -6 12 6 9 9 9 12 0 2 -7 9 -9 15 -5z
m187 9 c0 -2 -7 -7 -16 -10 -8 -3 -12 -2 -9 4 6 10 25 14 25 6z m3010 0 c0 -2
-8 -10 -17 -17 -16 -13 -17 -12 -4 4 13 16 21 21 21 13z m-3057 -21 c-3 -9 -8
-14 -10 -11 -3 3 -2 9 2 15 9 16 15 13 8 -4z m383 -9 c0 -14 -3 -23 -7 -20 -6
3 -6 22 0 42 3 10 7 -2 7 -22z m2359 4 c3 -5 1 -10 -4 -10 -6 0 -11 5 -11 10
0 6 2 10 4 10 3 0 8 -4 11 -10z m147 -4 c-5 -6 -7 -23 -6 -38 2 -16 -1 -28 -7
-28 -5 0 -9 -7 -9 -16 0 -8 4 -13 9 -9 5 3 12 1 16 -4 3 -6 -3 -8 -13 -6 -13
2 -18 -2 -17 -16 1 -10 5 -22 10 -26 4 -5 5 -3 1 4 -9 16 7 24 24 12 11 -6 12
-9 2 -9 -7 0 -10 -4 -7 -10 3 -5 -1 -23 -9 -39 -15 -27 -14 -30 2 -33 14 -3
13 -5 -5 -10 -17 -5 -21 -2 -18 14 3 14 -4 22 -25 29 -32 12 -46 37 -30 53 8
8 9 6 5 -6 -4 -11 1 -20 14 -28 12 -6 21 -8 21 -4 0 3 8 0 17 -7 11 -10 14
-10 9 -1 -4 6 -2 12 3 12 20 0 11 16 -9 17 -11 1 -20 -3 -20 -10 0 -7 -4 -6
-12 2 -10 11 -10 14 0 18 6 3 12 9 12 14 0 6 -4 8 -9 5 -5 -3 -12 1 -15 9 -4
13 -2 13 14 5 16 -9 18 -8 14 5 -4 8 0 23 7 32 12 14 11 15 -10 8 -17 -5 -22
-4 -19 6 3 8 13 14 23 14 10 0 20 6 23 14 3 8 0 11 -7 7 -6 -4 -11 -2 -11 3 0
6 5 11 11 11 5 0 8 4 5 8 -3 5 1 9 9 9 9 0 11 -5 7 -11z m418 4 c0 -5 -2 -10
-4 -10 -3 0 -8 5 -11 10 -3 6 -1 10 4 10 6 0 11 -4 11 -10z m-4009 -33 c-10
-9 -11 -8 -5 6 3 10 9 15 12 12 3 -3 0 -11 -7 -18z m749 17 c0 -8 -19 -13 -24
-6 -3 5 1 9 9 9 8 0 15 -2 15 -3z m2980 -4 c0 -5 -2 -10 -4 -10 -3 0 -8 5 -11
10 -3 6 -1 10 4 10 6 0 11 -4 11 -10z m-3683 -15 c0 -8 -4 -15 -9 -15 -10 0
-11 14 -1 23 9 10 10 9 10 -8z m660 2 c0 -8 -6 -14 -14 -14 -9 0 -10 4 -2 14
6 7 12 13 14 13 1 0 2 -6 2 -13z m319 -2 c-1 -8 -5 -17 -8 -21 -5 -4 -4 16 1
34 3 9 9 -1 7 -13z m-921 -13 c-3 -3 -11 0 -18 7 -9 10 -8 11 6 5 10 -3 15 -9
12 -12z m396 -15 c-10 -9 -11 -8 -5 6 3 10 9 15 12 12 3 -3 0 -11 -7 -18z
m569 9 c0 -3 -4 -8 -10 -11 -5 -3 -10 -1 -10 4 0 6 5 11 10 11 6 0 10 -2 10
-4z m2660 -6 c0 -5 -2 -10 -4 -10 -3 0 -8 5 -11 10 -3 6 -1 10 4 10 6 0 11 -4
11 -10z m-3858 -59 c-4 -11 -7 -10 -14 2 -4 8 -5 23 -1 33 6 16 7 16 13 -2 4
-10 5 -25 2 -33z m28 45 c0 -3 -4 -8 -10 -11 -5 -3 -10 -1 -10 4 0 6 5 11 10
11 6 0 10 -2 10 -4z m1116 -24 c-17 -16 -18 -16 -5 5 7 12 15 20 18 17 3 -2
-3 -12 -13 -22z m2779 19 c-9 -8 -36 -10 -30 -2 2 4 11 8 20 8 8 0 13 -3 10
-6z m-3507 -26 c-3 -3 -9 2 -12 12 -6 14 -5 15 5 6 7 -7 10 -15 7 -18z m459
10 c0 -8 -4 -12 -9 -9 -5 3 -6 10 -3 15 9 13 12 11 12 -6z m-402 -4 c3 -5 2
-12 -3 -15 -5 -3 -9 1 -9 9 0 17 3 19 12 6z m645 5 c0 -2 -7 -7 -16 -10 -8 -3
-12 -2 -9 4 6 10 25 14 25 6z m199 -22 c-14 -13 -16 -13 -16 0 0 8 4 13 9 10
4 -3 8 0 8 7 0 7 3 9 7 5 4 -3 0 -13 -8 -22z m1927 -2 c-17 -16 -18 -16 -5 5
7 12 15 20 18 17 3 -2 -3 -12 -13 -22z m294 24 c0 -3 -4 -8 -10 -11 -5 -3 -10
-1 -10 4 0 6 5 11 10 11 6 0 10 -2 10 -4z m-60 -10 c0 -2 -8 -10 -17 -17 -16
-13 -17 -12 -4 4 13 16 21 21 21 13z m637 -11 c0 -8 -4 -12 -9 -9 -5 3 -6 10
-3 15 9 13 12 11 12 -6z m-3962 -5 c3 -5 1 -10 -4 -10 -6 0 -11 5 -11 10 0 6
2 10 4 10 3 0 8 -4 11 -10z m289 2 c3 -5 -1 -9 -9 -9 -8 0 -12 4 -9 9 3 4 7 8
9 8 2 0 6 -4 9 -8z m3926 1 c-1 -22 -40 -41 -40 -20 0 4 0 12 0 17 0 6 9 10
20 10 11 0 20 -3 20 -7z m-1097 -18 c-3 -9 -8 -14 -10 -11 -3 3 -2 9 2 15 9
16 15 13 8 -4z m-3236 -1 c-3 -3 -12 -4 -19 -1 -8 3 -5 6 6 6 11 1 17 -2 13
-5z m3843 -4 c0 -5 -5 -10 -11 -10 -5 0 -7 5 -4 10 3 6 8 10 11 10 2 0 4 -4 4
-10z m274 -6 c3 -8 2 -12 -4 -9 -6 3 -10 10 -10 16 0 14 7 11 14 -7z m-4141
-13 c-12 -9 -12 -51 0 -51 6 0 2 -6 -9 -14 -27 -21 -41 -3 -20 28 12 19 13 26
4 27 -10 0 -10 2 0 6 6 2 10 9 7 14 -4 5 1 6 10 2 9 -3 13 -9 8 -12z m840 4
c-3 -9 -8 -14 -10 -11 -3 3 -2 9 2 15 9 16 15 13 8 -4z m3082 6 c3 -5 2 -12
-3 -15 -5 -3 -9 1 -9 9 0 17 3 19 12 6z m158 -6 c-3 -9 -8 -14 -10 -11 -3 3
-2 9 2 15 9 16 15 13 8 -4z m-3879 -11 c3 -8 2 -12 -4 -9 -6 3 -10 10 -10 16
0 14 7 11 14 -7z m66 10 c0 -8 -19 -13 -24 -6 -3 5 1 9 9 9 8 0 15 -2 15 -3z
m343 -8 c5 -12 -25 -46 -41 -46 -4 1 4 10 17 20 13 11 18 20 12 20 -6 0 -11 5
-11 10 0 15 17 12 23 -4z m91 6 c3 -5 -1 -9 -9 -9 -8 0 -15 4 -15 9 0 4 4 8 9
8 6 0 12 -4 15 -8z m412 -4 c4 -7 2 -8 -5 -4 -6 4 -18 3 -25 -3 -9 -8 -13 -7
-13 2 0 16 34 20 43 5z m2125 -5 c13 -16 12 -17 -3 -4 -17 13 -22 21 -14 21 2
0 10 -8 17 -17z m949 7 c0 -5 -2 -10 -4 -10 -3 0 -8 5 -11 10 -3 6 -1 10 4 10
6 0 11 -4 11 -10z m130 -5 c7 -8 10 -15 7 -15 -3 0 -12 -3 -21 -6 -9 -3 -16
-1 -16 6 0 6 5 8 10 5 6 -3 10 -2 10 4 0 5 -6 12 -12 14 -8 4 -9 6 -2 6 6 1
17 -6 24 -14z m-4295 -15 c3 -5 1 -10 -4 -10 -6 0 -11 5 -11 10 0 6 2 10 4 10
3 0 8 -4 11 -10z m3955 4 c0 -8 -19 -13 -24 -6 -3 5 1 9 9 9 8 0 15 -2 15 -3z
m-3712 -29 c-3 -3 -9 2 -12 12 -6 14 -5 15 5 6 7 -7 10 -15 7 -18z m3599 10
c0 -8 -4 -12 -9 -9 -5 3 -6 10 -3 15 9 13 12 11 12 -6z m-3662 -6 c3 -3 -7 -5
-22 -4 -16 1 -35 -3 -43 -9 -13 -9 -13 -9 -3 5 12 15 55 20 68 8z m165 1 c0
-5 -2 -10 -4 -10 -3 0 -8 5 -11 10 -3 6 -1 10 4 10 6 0 11 -4 11 -10z m51 -7
c13 -16 12 -17 -3 -4 -10 7 -18 15 -18 17 0 8 8 3 21 -13z m2774 7 c-3 -5 -12
-10 -18 -10 -7 0 -6 4 3 10 19 12 23 12 15 0z m30 0 c3 -5 1 -10 -4 -10 -6 0
-11 5 -11 10 0 6 2 10 4 10 3 0 8 -4 11 -10z m189 2 c3 -5 -1 -9 -9 -9 -8 0
-12 4 -9 9 3 4 7 8 9 8 2 0 6 -4 9 -8z m219 -6 c3 -8 -1 -20 -9 -27 -12 -10
-12 -14 -2 -20 11 -7 11 -9 0 -9 -7 0 -11 -4 -8 -8 2 -4 -5 -8 -16 -8 -17 0
-18 2 -5 10 14 9 14 11 -1 23 -16 12 -16 13 1 7 11 -4 16 -2 14 7 -2 8 -2 11
0 6 3 -4 9 -4 14 -1 6 3 5 11 -2 20 -7 8 -7 14 -1 14 5 0 12 -6 15 -14z m101
6 c3 -5 -1 -9 -9 -9 -8 0 -12 4 -9 9 3 4 7 8 9 8 2 0 6 -4 9 -8z m-2604 -16
c0 -3 -4 -8 -10 -11 -5 -3 -10 -1 -10 4 0 6 5 11 10 11 6 0 10 -2 10 -4z
m2896 -11 c-1 -8 -5 -17 -8 -21 -5 -4 -4 16 1 34 3 9 9 -1 7 -13z m124 3 c0
-4 -4 -8 -9 -8 -6 0 -12 4 -15 8 -3 5 1 9 9 9 8 0 15 -4 15 -9z m-3785 -7 c3
-5 2 -12 -3 -15 -5 -3 -9 1 -9 9 0 17 3 19 12 6z m216 -21 c6 0 8 4 4 9 -3 5
-1 12 4 15 16 10 22 -11 6 -24 -11 -9 -12 -17 -4 -31 7 -15 6 -19 -6 -19 -8 0
-15 3 -16 8 0 4 -2 23 -4 42 -1 19 -1 27 2 18 2 -10 9 -18 14 -18z m2810 13
c13 -16 12 -17 -3 -4 -17 13 -22 21 -14 21 2 0 10 -8 17 -17z m712 2 c-3 -9
-8 -14 -10 -11 -3 3 -2 9 2 15 9 16 15 13 8 -4z m-3862 -18 c-10 -9 -11 -8 -5
6 3 10 9 15 12 12 3 -3 0 -11 -7 -18z m169 19 c0 -2 -7 -7 -16 -10 -8 -3 -12
-2 -9 4 6 10 25 14 25 6z m685 -5 c-9 -8 -36 -10 -30 -2 2 4 11 8 20 8 8 0 13
-3 10 -6z m163 -4 c7 -8 8 -18 1 -27 -8 -12 -9 -11 -7 5 2 12 -2 19 -9 18 -7
-2 -13 2 -13 7 0 14 16 12 28 -3z m1957 3 c3 -6 -1 -7 -9 -4 -18 7 -21 14 -7
14 6 0 13 -4 16 -10z m215 1 c0 -6 -4 -12 -8 -15 -5 -3 -9 1 -9 9 0 8 4 15 9
15 4 0 8 -4 8 -9z m35 -1 c3 -5 1 -10 -4 -10 -6 0 -11 5 -11 10 0 6 2 10 4 10
3 0 8 -4 11 -10z m475 4 c0 -8 -19 -13 -24 -6 -3 5 1 9 9 9 8 0 15 -2 15 -3z
m-3917 -29 c-3 -9 -8 -14 -10 -11 -3 3 -2 9 2 15 9 16 15 13 8 -4z m857 9 c0
-8 -19 -13 -24 -6 -3 5 1 9 9 9 8 0 15 -2 15 -3z m25 -28 c0 -19 -3 -37 -6
-40 -4 -5 -4 62 0 72 4 10 7 -4 6 -32z m80 -10 c-1 -51 -11 -52 -11 -1 0 24 3
42 6 40 4 -2 6 -20 5 -39z m40 26 c-3 -3 -11 0 -18 7 -9 10 -8 11 6 5 10 -3
15 -9 12 -12z m36 1 c13 -16 12 -17 -3 -4 -10 7 -18 15 -18 17 0 8 8 3 21 -13z
m2301 -8 c2 3 5 -2 5 -10 0 -19 0 -19 -23 7 -12 14 -13 18 -3 10 9 -6 18 -10
21 -7z m-3056 -7 c2 -3 -13 -5 -35 -4 -22 0 -37 4 -35 7 4 7 62 4 70 -3z
m2751 -2 c5 -4 1 -6 -7 -4 -17 4 -22 -32 -5 -45 6 -6 5 -7 -3 -5 -8 2 -14 8
-14 13 0 6 -4 16 -10 23 -8 8 -7 12 3 12 11 0 11 2 -1 10 -12 8 -10 9 7 7 12
-2 26 -7 30 -11z m243 10 c0 -2 -8 -10 -17 -17 -16 -13 -17 -12 -4 4 13 16 21
21 21 13z m430 -6 c0 -5 -2 -10 -4 -10 -3 0 -8 5 -11 10 -3 6 -1 10 4 10 6 0
11 -4 11 -10z m240 1 c0 -6 -4 -12 -8 -15 -5 -3 -9 1 -9 9 0 8 4 15 9 15 4 0
8 -4 8 -9z m-3570 -15 c0 -2 -8 -10 -17 -17 -16 -13 -17 -12 -4 4 13 16 21 21
21 13z m30 -6 c0 -5 -5 -10 -11 -10 -5 0 -7 5 -4 10 3 6 8 10 11 10 2 0 4 -4
4 -10z m514 -6 c3 -8 2 -12 -4 -9 -6 3 -10 10 -10 16 0 14 7 11 14 -7z m2626
6 c0 -5 -5 -10 -11 -10 -5 0 -7 5 -4 10 3 6 8 10 11 10 2 0 4 -4 4 -10z m150
0 c12 -8 12 -10 1 -10 -11 0 -11 -3 -1 -15 11 -13 10 -14 -3 -9 -16 6 -18 -10
-5 -32 4 -6 5 -21 3 -34 -2 -12 0 -32 6 -44 8 -17 6 -16 -10 4 -11 13 -17 27
-13 30 10 8 15 43 5 37 -5 -3 -9 10 -9 29 0 19 5 34 11 34 5 0 3 5 -5 10 -8 5
-10 10 -5 10 6 0 17 -5 25 -10z m385 0 c3 -5 1 -10 -4 -10 -6 0 -11 5 -11 10
0 6 2 10 4 10 3 0 8 -4 11 -10z m-175 -4 c0 -2 -6 -9 -14 -15 -11 -9 -16 -9
-22 0 -4 7 -3 9 4 5 6 -3 13 -2 17 4 6 10 15 14 15 6z m-3720 -12 c0 -8 -19
-13 -24 -6 -3 5 1 9 9 9 8 0 15 -2 15 -3z m80 -3 c0 -6 -4 -12 -8 -15 -5 -3
-9 1 -9 9 0 8 4 15 9 15 4 0 8 -4 8 -9z m1714 1 c3 -5 -1 -9 -9 -9 -8 0 -12 4
-9 9 3 4 7 8 9 8 2 0 6 -4 9 -8z m1303 -9 c0 -9 -4 -10 -14 -2 -7 6 -13 12
-13 14 0 1 6 2 13 2 8 0 14 -6 14 -14z m44 4 c-6 -8 -8 -17 -4 -20 3 -4 1 -7
-5 -7 -15 0 -15 13 0 28 16 16 23 15 9 -1z m530 -4 c13 -16 12 -17 -3 -4 -17
13 -22 21 -14 21 2 0 10 -8 17 -17z m189 5 c0 -6 -3 -8 -7 -5 -3 4 -13 1 -22
-6 -14 -11 -14 -10 -2 6 15 20 31 22 31 5z m-3116 -16 c2 -4 -4 -8 -14 -8 -10
0 -16 4 -14 8 3 4 9 8 14 8 5 0 11 -4 14 -8z m936 -2 c0 -5 -5 -10 -11 -10 -5
0 -7 5 -4 10 3 6 8 10 11 10 2 0 4 -4 4 -10z m550 7 c0 -2 -10 -12 -22 -23
l-23 -19 19 23 c18 21 26 27 26 19z m821 -20 c-10 -9 -11 -8 -5 6 3 10 9 15
12 12 3 -3 0 -11 -7 -18z m-3051 -8 c0 -5 -4 -9 -8 -9 -5 0 -9 7 -9 15 0 8 4
12 9 9 4 -3 8 -9 8 -15z m346 -7 c1 -12 -5 -27 -12 -33 -11 -9 -14 -6 -12 15
1 14 7 26 13 27 5 0 1 5 -10 10 l-20 9 20 -3 c13 -1 20 -10 21 -25z m1201 9
c0 -11 -5 -18 -9 -15 -4 3 -5 11 -1 19 7 21 12 19 10 -4z m213 -2 c0 -5 -4 -9
-8 -9 -5 0 -9 7 -9 15 0 8 4 12 9 9 4 -3 8 -9 8 -15z m2037 6 c0 -8 -4 -15 -9
-15 -10 0 -11 14 -1 23 9 10 10 9 10 -8z m272 6 c2 0 -7 -10 -20 -21 -13 -10
-20 -19 -15 -20 5 0 3 -6 -4 -14 -6 -8 -18 -12 -26 -9 -11 4 -8 10 11 25 24
19 26 38 4 38 -6 0 -8 -4 -5 -8 3 -5 -1 -9 -9 -9 -11 0 -12 4 -4 13 8 10 44
13 68 5z m-4276 -14 c7 3 9 3 5 -2 -11 -11 12 -36 25 -28 6 3 7 1 3 -6 -5 -8
-12 -9 -19 -2 -7 5 -16 9 -21 8 -5 -1 -10 9 -12 23 -1 14 0 19 2 12 3 -6 11
-9 17 -5z m862 -5 c-3 -3 -11 0 -18 7 -9 10 -8 11 6 5 10 -3 15 -9 12 -12z
m205 4 c-7 -7 -13 -7 -20 0 -6 6 -3 10 10 10 13 0 16 -4 10 -10z m1983 4 c-24
-10 -33 -50 -11 -50 6 0 8 -3 5 -6 -12 -12 -34 15 -31 38 1 13 3 23 3 23 1 0
13 1 29 2 25 2 26 1 5 -7z m257 6 c0 -3 -4 -8 -10 -11 -5 -3 -10 -1 -10 4 0 6
5 11 10 11 6 0 10 -2 10 -4z m749 -10 c9 -11 9 -16 -1 -22 -7 -4 -10 -4 -6 1
4 4 3 14 -3 22 -6 7 -9 13 -6 13 2 0 10 -6 16 -14z m-3712 -11 c0 -8 -4 -12
-9 -9 -5 3 -6 10 -3 15 9 13 12 11 12 -6z m38 6 c3 -5 2 -12 -3 -15 -5 -3 -9
1 -9 9 0 17 3 19 12 6z m442 -6 c0 -8 -4 -12 -9 -9 -5 3 -6 10 -3 15 9 13 12
11 12 -6z m1079 0 c-1 -8 -5 -17 -8 -21 -5 -4 -4 16 1 34 3 9 9 -1 7 -13z
m1642 -10 c-3 -3 -9 2 -12 12 -6 14 -5 15 5 6 7 -7 10 -15 7 -18z m-2558 3 c0
-4 -4 -8 -9 -8 -6 0 -12 4 -15 8 -3 5 1 9 9 9 8 0 15 -4 15 -9z m200 2 c0 -5
-5 -10 -11 -10 -5 0 -7 5 -4 10 3 6 8 10 11 10 2 0 4 -4 4 -10z m1234 -2 c-5
-8 -1 -9 12 -5 18 7 18 7 0 -8 -18 -13 -15 -20 7 -16 4 0 7 -3 7 -9 0 -5 -4
-10 -9 -10 -12 0 -28 23 -25 38 3 20 4 22 10 22 3 0 2 -5 -2 -12z m926 8 c0
-2 -7 -7 -16 -10 -8 -3 -12 -2 -9 4 6 10 25 14 25 6z m35 -14 c-3 -3 -11 0
-18 7 -9 10 -8 11 6 5 10 -3 15 -9 12 -12z m632 -7 c12 1 20 -2 17 -6 -8 -14
-45 -5 -62 16 -17 19 -16 20 3 4 11 -9 30 -15 42 -14z m-3692 3 c5 4 5 1 1 -6
-6 -10 -11 -10 -22 -1 -8 6 -14 14 -14 16 0 3 6 0 13 -6 8 -6 18 -7 22 -3z
m540 3 c3 -5 2 -12 -3 -15 -5 -3 -9 1 -9 9 0 17 3 19 12 6z m1280 -1 c10 9 13
7 11 -6 -4 -26 -32 -26 -33 0 -1 11 1 15 4 8 4 -9 8 -10 18 -2z m-1915 -5 c0
-7 -30 -13 -34 -7 -3 4 4 9 15 9 10 1 19 0 19 -2z m474 -11 c3 -8 2 -13 -2
-11 -4 3 -16 -4 -27 -15 -20 -19 -20 -20 10 -14 27 6 28 5 7 -4 -32 -14 -47
-3 -28 19 9 10 13 21 9 26 -5 4 -2 5 5 1 6 -4 12 -2 12 3 0 16 7 13 14 -5z
m1046 6 c0 -5 -4 -10 -10 -10 -5 0 -10 5 -10 10 0 6 5 10 10 10 6 0 10 -4 10
-10z m1470 4 c0 -8 -19 -13 -24 -6 -3 5 1 9 9 9 8 0 15 -2 15 -3z m700 2 c0
-2 -8 -10 -17 -17 -16 -13 -17 -12 -4 4 13 16 21 21 21 13z m25 -6 c3 -5 1
-10 -4 -10 -6 0 -11 5 -11 10 0 6 2 10 4 10 3 0 8 -4 11 -10z m-3437 -23 c6
-5 12 -14 12 -20 0 -7 -5 -4 -11 6 -6 9 -14 15 -19 12 -5 -3 -11 -1 -14 4 -7
11 13 9 32 -2z m502 3 c0 -5 -2 -10 -4 -10 -3 0 -8 5 -11 10 -3 6 -1 10 4 10
6 0 11 -4 11 -10z m1634 -2 c-3 -4 -11 -5 -19 -1 -21 7 -19 12 4 10 11 0 18
-5 15 -9z m-2614 -18 c0 -5 -7 -7 -15 -4 -8 4 -15 8 -15 10 0 2 7 4 15 4 8 0
15 -4 15 -10z m3030 6 c0 -3 -4 -8 -10 -11 -5 -3 -10 -1 -10 4 0 6 5 11 10 11
6 0 10 -2 10 -4z m890 -6 c0 -5 -2 -10 -4 -10 -3 0 -8 5 -11 10 -3 6 -1 10 4
10 6 0 11 -4 11 -10z m-3936 -32 c-4 -6 0 -14 7 -19 10 -6 8 -8 -7 -7 -14 2
-20 8 -18 22 3 29 3 28 14 21 6 -4 7 -11 4 -17z m2119 10 c-8 -13 -9 -18 -12
-39 0 -5 -6 -7 -11 -4 -6 4 -19 1 -28 -7 -15 -12 -16 -11 -3 5 7 9 20 17 28
17 8 0 11 5 8 10 -4 6 -11 7 -17 4 -7 -4 -8 -2 -4 5 4 6 11 9 16 6 5 -3 11 -1
15 5 3 5 8 10 11 10 3 0 2 -6 -3 -12z m-339 -26 c-16 -14 -18 -20 -9 -29 7 -7
16 -9 21 -5 4 4 4 1 0 -5 -5 -10 -11 -10 -26 -1 -21 13 -23 49 -3 41 7 -3 13
0 13 6 0 6 6 11 13 11 6 -1 3 -8 -9 -18z m976 8 c-8 -5 -19 -10 -25 -10 -5 0
-3 5 5 10 8 5 20 10 25 10 6 0 3 -5 -5 -10z m-280 -20 c0 -5 -2 -10 -4 -10 -3
0 -8 5 -11 10 -3 6 -1 10 4 10 6 0 11 -4 11 -10z m576 -15 c1 -8 -4 -12 -14
-8 -15 4 -15 3 -1 -9 8 -7 18 -22 22 -33 5 -13 -1 -10 -15 9 -27 36 -32 57
-10 49 11 -5 13 -3 7 8 -5 8 -4 11 0 6 5 -4 10 -14 11 -22z m-1916 0 c0 -8 -2
-15 -4 -15 -2 0 -6 7 -10 15 -3 8 -1 15 4 15 6 0 10 -7 10 -15z m-1130 1 c0
-11 -19 -15 -25 -6 -3 5 1 10 9 10 9 0 16 -2 16 -4z m3487 -10 c-10 -8 -13
-16 -7 -18 5 -1 2 -8 -8 -14 -15 -10 -18 -8 -19 6 -1 10 8 22 20 28 30 15 35
14 14 -2z m670 -8 c-9 -5 -14 -15 -11 -23 4 -8 2 -15 -3 -15 -5 0 -9 9 -10 20
-1 11 3 20 8 20 6 0 7 4 4 10 -4 6 1 7 11 3 14 -5 15 -7 1 -15z m-3832 -8 c3
-5 1 -10 -4 -10 -6 0 -11 5 -11 10 0 6 2 10 4 10 3 0 8 -4 11 -10z m720 0 c3
-5 1 -10 -4 -10 -6 0 -11 5 -11 10 0 6 2 10 4 10 3 0 8 -4 11 -10z m42 -4 c-3
-7 0 -19 6 -26 9 -9 7 -9 -9 0 -17 10 -19 16 -10 26 15 17 19 17 13 0z m2172
-16 c-11 -29 -29 -41 -29 -18 0 6 -9 3 -20 -7 -11 -10 -20 -13 -20 -7 0 7 6
12 13 12 7 0 8 3 2 8 -5 4 -11 13 -13 21 -2 11 2 10 22 -3 32 -20 33 -20 39 4
3 11 8 20 11 20 3 0 0 -13 -5 -30z m106 20 c3 -5 1 -10 -4 -10 -6 0 -11 5 -11
10 0 6 2 10 4 10 3 0 8 -4 11 -10z m680 0 c3 -5 1 -10 -4 -10 -6 0 -11 5 -11
10 0 6 2 10 4 10 3 0 8 -4 11 -10z m-608 -22 c-3 -8 -6 -5 -6 6 -1 11 2 17 5
13 3 -3 4 -12 1 -19z m293 12 c0 -5 -2 -10 -4 -10 -3 0 -8 5 -11 10 -3 6 -1
10 4 10 6 0 11 -4 11 -10z m170 -9 c0 -3 -5 -13 -11 -21 -8 -12 -12 -12 -16
-2 -4 10 -9 9 -24 -4 -11 -10 -19 -12 -19 -6 0 7 6 12 13 13 10 0 10 2 0 6 -7
2 -13 8 -13 13 0 9 26 7 36 -3 14 -14 26 -7 14 8 -11 13 -10 14 4 9 9 -3 16
-9 16 -13z m217 -3 c-3 -8 -6 -5 -6 6 -1 11 2 17 5 13 3 -3 4 -12 1 -19z
m-1523 0 c-3 -4 -1 -8 5 -8 5 0 12 6 14 13 4 7 6 8 6 1 1 -6 -5 -16 -12 -22
-9 -8 -16 -6 -24 7 -9 14 -8 18 3 18 7 0 11 -4 8 -9z m-14 -21 c0 -2 -8 -3
-18 -3 -10 0 -19 6 -19 13 0 8 6 9 19 2 10 -5 18 -11 18 -12z m-592 -2 c-2 -5
-11 -11 -22 -12 -16 -3 -17 -1 -6 12 14 16 34 16 28 0z"/>
<path d="M4306 1678 c3 -5 10 -6 15 -3 13 9 11 12 -6 12 -8 0 -12 -4 -9 -9z"/>
<path d="M4266 1501 c-4 -5 -2 -12 3 -15 5 -4 12 -2 15 3 4 5 2 12 -3 15 -5 4
-12 2 -15 -3z"/>
<path d="M4505 950 c-3 -6 1 -7 9 -4 18 7 21 14 7 14 -6 0 -13 -4 -16 -10z"/>
<path d="M3740 4046 c0 -2 8 -10 18 -17 15 -13 16 -12 3 4 -13 16 -21 21 -21
13z"/>
<path d="M4295 3180 c3 -5 8 -10 11 -10 2 0 4 5 4 10 0 6 -5 10 -11 10 -5 0
-7 -4 -4 -10z"/>
<path d="M4366 2923 c-6 -14 -5 -15 5 -6 7 7 10 15 7 18 -3 3 -9 -2 -12 -12z"/>
<path d="M166 2818 c3 -5 10 -6 15 -3 13 9 11 12 -6 12 -8 0 -12 -4 -9 -9z"/>
<path d="M4372 2725 c4 -4 3 -14 -3 -22 -7 -8 -8 -13 -1 -13 15 0 23 28 9 36
-7 4 -9 4 -5 -1z"/>
<path d="M245 2700 c-3 -6 1 -7 9 -4 18 7 21 14 7 14 -6 0 -13 -4 -16 -10z"/>
<path d="M309 2677 c6 -8 9 -16 6 -19 -3 -2 2 -5 10 -5 13 0 13 3 -2 19 -19
21 -31 25 -14 5z"/>
<path d="M4381 2647 c-1 -5 4 -17 9 -28 6 -11 8 -25 3 -32 -11 -19 -11 -48 1
-44 6 3 10 10 8 16 -1 6 5 14 14 18 11 4 12 8 4 13 -7 4 -12 20 -12 35 0 16
-4 22 -8 15 -6 -9 -9 -9 -13 1 -3 8 -6 10 -6 6z"/>
<path d="M4446 2558 c3 -5 10 -6 15 -3 13 9 11 12 -6 12 -8 0 -12 -4 -9 -9z"/>
<path d="M4420 2525 c-9 -11 -9 -15 -1 -15 7 0 10 -4 7 -8 -2 -4 4 -8 15 -8
19 0 19 1 2 14 -15 11 -16 14 -3 22 8 5 10 10 4 10 -6 0 -17 -7 -24 -15z"/>
<path d="M4470 2481 c0 -6 4 -12 8 -15 5 -3 9 1 9 9 0 8 -4 15 -9 15 -4 0 -8
-4 -8 -9z"/>
<path d="M4510 2460 c0 -5 5 -10 11 -10 5 0 7 5 4 10 -3 6 -8 10 -11 10 -2 0
-4 -4 -4 -10z"/>
<path d="M4480 2436 c0 -8 4 -17 9 -20 5 -4 7 3 4 14 -6 23 -13 26 -13 6z"/>
<path d="M4530 2405 c-9 -11 -9 -15 -1 -15 7 0 9 -5 5 -12 -4 -7 -3 -10 1 -5
8 6 16 47 10 47 -2 0 -8 -7 -15 -15z"/>
<path d="M4545 2360 c-3 -5 -1 -10 4 -10 6 0 11 5 11 10 0 6 -2 10 -4 10 -3 0
-8 -4 -11 -10z"/>
<path d="M4561 2327 c-13 -21 -12 -21 5 -5 10 10 16 20 13 22 -3 3 -11 -5 -18
-17z"/>
<path d="M4595 2320 c3 -5 8 -10 11 -10 2 0 4 5 4 10 0 6 -5 10 -11 10 -5 0
-7 -4 -4 -10z"/>
<path d="M4560 2300 c-13 -8 -13 -10 2 -10 9 0 20 5 23 10 8 13 -5 13 -25 0z"/>
<path d="M4675 2210 c-4 -6 -11 -8 -16 -5 -5 4 -9 1 -9 -4 0 -16 16 -13 30 4
7 8 10 15 7 15 -3 0 -9 -5 -12 -10z"/>
<path d="M4687 2153 c3 -7 6 -13 8 -13 2 0 5 6 8 13 3 8 -1 14 -8 14 -7 0 -11
-6 -8 -14z"/>
<path d="M173 2035 c0 -8 4 -12 9 -9 5 3 6 10 3 15 -9 13 -12 11 -12 -6z"/>
<path d="M4702 2020 c-7 -11 -20 -17 -32 -15 -30 6 -24 -8 12 -28 27 -16 29
-16 17 -1 -12 14 -10 19 9 34 12 10 19 21 14 24 -4 2 -13 -4 -20 -14z"/>
<path d="M365 2010 c-3 -5 -13 -6 -23 -3 -9 3 -14 3 -10 -2 4 -4 4 -13 -2 -19
-6 -8 -3 -12 10 -12 10 0 16 4 14 8 -3 4 -1 8 4 8 6 0 12 7 16 15 6 17 0 20
-9 5z"/>
<path d="M115 1910 c-4 -6 -11 -7 -17 -4 -7 4 -8 2 -4 -5 6 -9 11 -9 22 0 14
11 18 19 10 19 -3 0 -8 -5 -11 -10z"/>
<path d="M4826 1765 c4 -8 11 -15 18 -15 6 0 4 -5 -4 -11 -10 -7 -11 -9 -2 -7
8 2 13 7 13 11 -1 4 -1 14 -1 22 0 8 -7 15 -15 15 -9 0 -12 -6 -9 -15z"/>
<path d="M4855 1720 c-3 -6 1 -7 9 -4 18 7 21 14 7 14 -6 0 -13 -4 -16 -10z"/>
<path d="M4831 1644 c0 -11 3 -14 6 -6 3 7 2 16 -1 19 -3 4 -6 -2 -5 -13z"/>
<path d="M112 1599 c2 -6 8 -10 13 -10 5 0 11 4 13 10 2 6 -4 11 -13 11 -9 0
-15 -5 -13 -11z"/>
<path d="M110 1521 c0 -6 5 -11 11 -11 5 0 7 -6 3 -12 -5 -9 -2 -9 9 1 9 7 17
19 16 25 0 6 -3 6 -6 -2 -4 -10 -8 -10 -19 -1 -10 8 -14 8 -14 0z"/>
<path d="M93 1487 c0 -8 6 -14 14 -14 9 0 10 4 2 14 -6 7 -12 13 -14 13 -1 0
-2 -6 -2 -13z"/>
<path d="M4732 1483 c-10 -17 -9 -21 3 -19 8 1 21 8 28 16 8 8 8 11 0 6 -6 -3
-13 0 -15 6 -3 8 -9 5 -16 -9z"/>
<path d="M130 1445 c8 -10 7 -14 -6 -17 -14 -2 -11 -6 11 -16 24 -11 27 -11
17 1 -9 10 -9 16 0 25 7 7 10 12 8 13 -3 0 -13 2 -23 4 -14 3 -16 0 -7 -10z"/>
<path d="M4690 1362 l-22 -18 24 -1 c12 0 17 1 10 4 -10 4 -8 9 5 19 10 7 15
14 12 14 -4 0 -17 -8 -29 -18z"/>
<path d="M130 1126 c-8 -10 -7 -15 2 -18 16 -6 38 1 38 12 0 15 -28 19 -40 6z"/>
<path d="M4533 1005 c0 -7 9 -17 19 -24 11 -7 18 -7 18 -1 0 5 -5 10 -11 10
-5 0 -8 4 -5 9 3 5 0 11 -7 14 -8 3 -14 -1 -14 -8z"/>
<path d="M829 848 c-1 -7 -3 -22 -4 -33 -1 -14 4 -21 15 -21 18 0 20 12 7 34
-5 6 -5 17 -2 22 3 6 1 10 -4 10 -6 0 -12 -6 -12 -12z m16 -28 c3 -5 1 -10 -4
-10 -6 0 -11 5 -11 10 0 6 2 10 4 10 3 0 8 -4 11 -10z"/>
<path d="M3022 773 c-16 -6 -5 -23 16 -23 14 0 14 2 3 9 -11 7 -10 10 5 14 11
3 13 5 4 5 -8 0 -21 -2 -28 -5z"/>
<path d="M3003 723 c-3 -8 -3 -17 1 -20 3 -4 -4 -18 -16 -32 -19 -21 -20 -23
-3 -11 29 22 33 30 28 54 -3 15 -2 17 5 8 8 -11 10 -11 15 0 3 9 -1 15 -10 15
-8 0 -17 -7 -20 -14z"/>
<path d="M2549 701 c8 -5 10 -14 6 -22 -6 -11 -5 -11 5 -2 14 12 6 33 -13 33
-8 0 -7 -3 2 -9z"/>
<path d="M1370 641 c0 -5 7 -11 14 -14 10 -4 13 -1 9 9 -6 15 -23 19 -23 5z"/>
<path d="M1896 623 c-6 -14 -5 -15 5 -6 7 7 10 15 7 18 -3 3 -9 -2 -12 -12z"/>
<path d="M715 619 c-4 -6 -5 -12 -2 -15 2 -3 7 2 10 11 7 17 1 20 -8 4z"/>
<path d="M1354 605 c-10 -8 -14 -15 -8 -15 6 0 17 7 24 15 16 19 9 19 -16 0z"/>
<path d="M3195 609 c-10 -15 3 -25 16 -12 7 7 7 13 1 17 -6 3 -14 1 -17 -5z"/>
<path d="M3838 613 c7 -3 16 -2 19 1 4 3 -2 6 -13 5 -11 0 -14 -3 -6 -6z"/>
<path d="M1379 593 c-13 -16 -12 -17 4 -4 16 13 21 21 13 21 -2 0 -10 -8 -17
-17z"/>
<path d="M3870 601 c0 -5 6 -12 13 -14 10 -4 10 -6 0 -6 -17 -1 -17 -28 0 -34
13 -5 14 8 8 56 -1 10 -21 9 -21 -2z"/>
<path d="M2958 569 c10 -14 10 -18 -2 -22 -22 -9 -39 -44 -24 -53 7 -5 8 -3 3
6 -6 10 -4 12 9 7 9 -4 15 -3 12 2 -3 5 6 21 20 36 14 15 19 25 11 22 -8 -3
-21 0 -28 6 -11 10 -11 9 -1 -4z"/>
<path d="M827 539 c7 -7 15 -10 18 -7 3 3 -2 9 -12 12 -14 6 -15 5 -6 -5z"/>
<path d="M1358 543 c7 -3 16 -2 19 1 4 3 -2 6 -13 5 -11 0 -14 -3 -6 -6z"/>
<path d="M4390 539 c0 -5 5 -7 10 -4 6 3 10 8 10 11 0 2 -4 4 -10 4 -5 0 -10
-5 -10 -11z"/>
<path d="M3194 526 c1 -8 5 -18 8 -22 4 -3 5 1 4 10 -1 8 -5 18 -8 22 -4 3 -5
-1 -4 -10z"/>
<path d="M3873 527 c0 -8 6 -14 14 -14 9 0 10 4 2 14 -6 7 -12 13 -14 13 -1 0
-2 -6 -2 -13z"/>
<path d="M1959 516 c14 -8 32 -11 40 -8 14 5 14 4 1 -13 -8 -10 -10 -16 -3
-12 6 4 14 1 17 -5 2 -7 4 -3 2 10 -3 25 -26 55 -26 34 0 -9 -5 -10 -19 -2
-11 5 -23 10 -28 10 -4 -1 3 -7 16 -14z"/>
<path d="M476 511 c-4 -5 -20 -8 -36 -6 -32 4 -36 -1 -20 -25 8 -13 10 -12 10
3 0 9 5 17 11 17 5 0 8 -4 5 -9 -6 -9 42 -6 52 3 3 4 1 11 -5 17 -7 7 -13 7
-17 0z"/>
<path d="M546 511 c-3 -5 4 -17 16 -27 12 -11 18 -14 15 -7 -4 6 -3 13 3 15 6
2 1 9 -9 15 -11 7 -22 9 -25 4z"/>
<path d="M1170 518 c0 -2 11 -14 24 -26 23 -19 25 -19 23 -2 -1 10 -5 16 -10
13 -4 -2 -14 1 -22 7 -8 7 -15 10 -15 8z"/>
<path d="M3333 492 c0 -14 2 -21 5 -15 4 5 13 12 20 14 8 3 7 7 -5 15 -15 9
-18 7 -20 -14z"/>
<path d="M3979 508 c9 -12 10 -18 2 -18 -6 0 -11 -4 -11 -8 0 -5 7 -9 15 -9 8
0 12 4 9 9 -3 4 0 8 5 8 6 0 11 5 11 12 0 6 -3 8 -7 5 -3 -4 -13 -1 -22 6 -14
11 -14 10 -2 -5z"/>
<path d="M4255 511 c-3 -6 -1 -19 4 -28 10 -17 10 -17 11 1 0 19 0 19 22 0 14
-12 18 -13 10 -3 -6 9 -8 20 -4 25 4 5 3 6 -2 2 -5 -4 -15 -3 -22 3 -8 7 -14
7 -19 0z"/>
<path d="M950 496 c7 -7 13 -7 20 0 6 6 3 10 -10 10 -13 0 -16 -4 -10 -10z"/>
<path d="M1050 501 c0 -4 5 -13 10 -21 8 -13 10 -12 10 3 0 9 5 17 11 17 5 0
8 -4 5 -8 -3 -5 5 -7 17 -6 12 1 25 3 30 3 4 1 7 4 7 9 0 4 -20 7 -45 8 -25 0
-45 -2 -45 -5z"/>
<path d="M196 487 c3 -10 9 -15 12 -12 3 3 0 11 -7 18 -10 9 -11 8 -5 -6z"/>
<path d="M2657 485 c3 -8 9 -12 14 -9 12 7 11 11 -5 17 -10 4 -13 1 -9 -8z"/>
<path d="M610 479 c0 -5 5 -7 10 -4 6 3 10 8 10 11 0 2 -4 4 -10 4 -5 0 -10
-5 -10 -11z"/>
<path d="M1240 480 c-12 -7 -10 -9 8 -7 12 0 22 5 22 9 0 11 -12 10 -30 -2z"/>
<path d="M4325 480 c-3 -6 1 -7 9 -4 18 7 21 14 7 14 -6 0 -13 -4 -16 -10z"/>
<path d="M2095 460 c3 -5 8 -10 11 -10 2 0 4 5 4 10 0 6 -5 10 -11 10 -5 0 -7
-4 -4 -10z"/>
<path d="M2775 460 c3 -5 8 -10 11 -10 2 0 4 5 4 10 0 6 -5 10 -11 10 -5 0 -7
-4 -4 -10z"/>
</g>
</svg>
